<?xml version="1.0" encoding="utf-8"?>
<!-- Generator: Adobe Illustrator 14.0.0, SVG Export Plug-In . SVG Version: 6.00 Build 43363)  -->
<!DOCTYPE svg PUBLIC "-//W3C//DTD SVG 1.1//EN" "http://www.w3.org/Graphics/SVG/1.1/DTD/svg11.dtd">
<svg version="1.1"
	 id="svg10067" xmlns:svg="http://www.w3.org/2000/svg" inkscape:export-filename="../03.design_system_map.png" inkscape:export-xdpi="200" inkscape:export-ydpi="200" xmlns:inkscape="http://www.inkscape.org/namespaces/inkscape" xmlns:sodipodi="http://sodipodi.sourceforge.net/DTD/sodipodi-0.dtd" xmlns:rdf="http://www.w3.org/1999/02/22-rdf-syntax-ns#" inkscape:version="0.48.2 r9819" xmlns:cc="http://creativecommons.org/ns#" sodipodi:docname="03.design_system_map.svg" xmlns:dc="http://purl.org/dc/elements/1.1/"
	 xmlns="http://www.w3.org/2000/svg" xmlns:xlink="http://www.w3.org/1999/xlink" x="0px" y="0px" width="1488.19px"
	 height="1052.363px" viewBox="0 0 1488.19 1052.363" enable-background="new 0 0 1488.19 1052.363" xml:space="preserve">
<sodipodi:namedview  units="mm" id="base" inkscape:window-maximized="1" inkscape:cx="744.09448" showgrid="true" inkscape:window-width="1440" inkscape:window-height="795" inkscape:window-x="0" inkscape:window-y="0" showguides="false" inkscape:guide-bbox="true" inkscape:document-units="mm" inkscape:cy="526.18109" pagecolor="#ffffff" inkscape:current-layer="layer1" bordercolor="#666666" borderopacity="1.0" inkscape:pageopacity="1" inkscape:pageshadow="2" inkscape:zoom="0.45991771">
	<sodipodi:guide  id="guide24376" orientation="0,1" position="478.34646,974.40945"></sodipodi:guide>
	<sodipodi:guide  id="guide24416" orientation="1,0" position="35.433071,938.97638"></sodipodi:guide>
	<sodipodi:guide  id="guide24418" orientation="1,0" position="1452.7559,921.25984"></sodipodi:guide>
	<sodipodi:guide  id="guide24420" orientation="0,1" position="974.40945,106.29921"></sodipodi:guide>
	<sodipodi:guide  id="guide24422" orientation="0,1" position="389.76378,938.97638"></sodipodi:guide>
	<sodipodi:guide  id="guide24424" orientation="0,1" position="701.5748,1009.8425"></sodipodi:guide>
	<sodipodi:guide  id="guide25257" orientation="0,1" position="230.31496,921.25984"></sodipodi:guide>
</sodipodi:namedview>
<a id="a24212" xlink:href="http://creativecommons.org/licenses/by-sa/3.0/"  transform="matrix(0.56208624,0,0,0.56208624,1028.2309,500.82271)" xlink:title="CC BY-SA">
	<text transform="matrix(1.7791 0 0 1.7791 -406.8832 834.9462)" font-family="'TitilliumText25L-250wt'" font-size="9">This work is licensed under the Creative Commons Attribution-Share Alike 3.0 Unported License.</text>
	<text transform="matrix(1.7791 0 0 1.7791 255.3038 834.9462)" font-family="'TitilliumText25L-250wt'" font-size="10"> </text>
	<text transform="matrix(1.7791 0 0 1.7791 -406.8832 854.9627)" font-family="'TitilliumText25L-250wt'" font-size="9">To view a copy of this license, visit http://creativecommons.org/licenses/by-sa/3.0/</text>
	<text transform="matrix(1.7791 0 0 1.7791 178.4174 854.9627)" font-family="'TitilliumText25L-250wt'" font-size="10"> </text>
	<text transform="matrix(1.7791 0 0 1.7791 -406.8832 874.9774)" font-family="'TitilliumText25L-250wt'" font-size="9">or send a letter to Creative Commons, 171 Second Street, Suite 300, San Francisco, California, 94105, USA.</text>
</a>
<g id="g25400" transform="matrix(0.83432244,0,0,0.83432244,242.1812,154.35087)">
	<g id="g9971" transform="matrix(0.7026078,0,0,-0.7026078,-2047.1135,1073.3221)">
		<g>
			<defs>
				<rect id="SVGID_1_" x="4923.748" y="96.971" width="45.846" height="45.846"/>
			</defs>
			<clipPath id="SVGID_2_">
				<use xlink:href="#SVGID_1_"  overflow="visible"/>
			</clipPath>
			<g id="g9973" clip-path="url(#SVGID_2_)">
				<g id="g9975" transform="translate(4946.6187,152.9518)">
					<path id="path9977" inkscape:connector-curvature="0" d="M0-0.001c9.146,0,16.861-3.139,23.14-9.419
						c6.315-6.317,9.476-14.034,9.476-23.14c0-9.149-3.099-16.766-9.302-22.85C16.723-61.883,8.953-65.118,0-65.118
						c-8.799,0-16.434,3.199-22.906,9.592c-6.396,6.397-9.594,14.05-9.594,22.966s3.199,16.629,9.594,23.14
						C-16.629-3.14-8.992-0.001,0-0.001 M0.115-5.872c-7.402,0-13.662-2.599-18.778-7.793c-5.313-5.428-7.965-11.725-7.965-18.895
						c0-7.21,2.634-13.451,7.906-18.722c5.271-5.271,11.55-7.906,18.837-7.906c7.248,0,13.566,2.652,18.957,7.963
						c5.114,4.924,7.673,11.145,7.673,18.665c0,7.403-2.599,13.701-7.79,18.895C13.761-8.47,7.479-5.872,0.115-5.872 M8.836-24.48
						v-13.314H5.115v-15.813H-5.001v15.813h-3.722v13.314c0,0.583,0.203,1.076,0.613,1.483c0.405,0.41,0.9,0.613,1.483,0.613H6.744
						c0.543,0,1.026-0.203,1.453-0.613C8.623-23.404,8.836-23.897,8.836-24.48 M-4.478-16.107c0,3.062,1.513,4.595,4.535,4.595
						c3.024,0,4.535-1.533,4.535-4.595c0-3.022-1.511-4.535-4.535-4.535C-2.965-20.642-4.478-19.129-4.478-16.107"/>
				</g>
				<g id="g9979" transform="translate(4896.9019,80.7901)">
					<path id="path9981" inkscape:connector-curvature="0" fill="none" stroke="#000000" stroke-width="0.592" d="M-0.001,0h-31.996
						 M10.665-10.665v-31.996 M-0.001,78.208h-31.996 M10.665,88.873v31.996 M99.541,78.208h31.992 M88.874,88.873v31.996 M99.541,0
						h31.992 M88.874-10.665v-31.996"/>
				</g>
			</g>
		</g>
	</g>
	<g id="g9983" transform="matrix(0.7026078,0,0,-0.7026078,-2047.1135,1073.3221)">
		<g>
			<defs>
				<rect id="SVGID_3_" x="4577.39" y="96.971" width="45.845" height="45.846"/>
			</defs>
			<clipPath id="SVGID_4_">
				<use xlink:href="#SVGID_3_"  overflow="visible"/>
			</clipPath>
			<g id="g9985" clip-path="url(#SVGID_4_)">
				<g id="g9987" transform="translate(4600.2598,152.9518)">
					<path id="path9989" inkscape:connector-curvature="0" d="M-0.001-0.001c9.109,0,16.861-3.179,23.256-9.536
						c3.062-3.062,5.388-6.56,6.977-10.495c1.589-3.932,2.386-8.11,2.386-12.528c0-4.458-0.786-8.636-2.356-12.531
						c-1.569-3.895-3.885-7.333-6.949-10.319c-3.179-3.139-6.782-5.544-10.813-7.21s-8.196-2.499-12.501-2.499
						c-4.301,0-8.421,0.823-12.354,2.472c-3.935,1.646-7.462,4.028-10.582,7.15c-3.12,3.119-5.494,6.637-7.122,10.552
						c-1.628,3.915-2.441,8.043-2.441,12.384c0,4.301,0.823,8.44,2.472,12.411c1.644,3.975,4.038,7.53,7.177,10.672
						C-16.649-3.16-9.031-0.001-0.001-0.001 M0.117-5.872c-7.442,0-13.702-2.599-18.78-7.793c-2.559-2.599-4.525-5.514-5.902-8.749
						c-1.374-3.239-2.064-6.62-2.064-10.145c0-3.488,0.69-6.85,2.064-10.089c1.378-3.235,3.344-6.124,5.902-8.663
						s5.444-4.475,8.663-5.814c3.215-1.336,6.587-2.006,10.117-2.006c3.487,0,6.869,0.68,10.144,2.036
						c3.275,1.356,6.231,3.315,8.866,5.871c5.081,4.961,7.618,11.185,7.618,18.665c0,3.605-0.661,7.014-1.977,10.232
						s-3.235,6.084-5.756,8.606C13.779-8.49,7.479-5.872,0.117-5.872 M-0.291-27.152l-4.358-2.269
						c-0.468,0.97-1.04,1.649-1.716,2.036c-0.68,0.386-1.311,0.58-1.889,0.58c-2.909,0-4.363-1.919-4.363-5.754
						c0-1.746,0.368-3.142,1.104-4.188s1.823-1.569,3.259-1.569c1.899,0,3.235,0.93,4.01,2.792l4.013-2.036
						c-0.853-1.589-2.037-2.839-3.55-3.748c-1.511-0.913-3.177-1.369-4.998-1.369c-2.907,0-5.253,0.893-7.035,2.675
						c-1.783,1.783-2.676,4.265-2.676,7.443c0,3.102,0.903,5.561,2.705,7.383c1.801,1.823,4.077,2.732,6.829,2.732
						C-4.922-22.444-2.034-24.013-0.291-27.152 M18.487-27.152l-4.301-2.269c-0.463,0.97-1.038,1.649-1.716,2.036
						c-0.678,0.386-1.326,0.58-1.946,0.58c-2.909,0-4.361-1.919-4.361-5.754c0-1.746,0.368-3.142,1.106-4.188
						c0.733-1.046,1.819-1.569,3.255-1.569c1.899,0,3.235,0.93,4.01,2.792l4.07-2.036c-0.893-1.589-2.092-2.839-3.605-3.748
						c-1.509-0.913-3.159-1.369-4.941-1.369c-2.945,0-5.301,0.893-7.063,2.675C1.23-38.22,0.349-35.738,0.349-32.56
						c0,3.102,0.903,5.561,2.702,7.383c1.803,1.823,4.082,2.732,6.834,2.732C13.916-22.444,16.784-24.013,18.487-27.152"/>
				</g>
				<g id="g9991" transform="translate(4550.543,80.7901)">
					<path id="path9993" inkscape:connector-curvature="0" fill="none" stroke="#000000" stroke-width="0.592" d="M0.001,0h-31.997
						 M10.666-10.665v-31.996 M0.001,78.208h-31.997 M10.666,88.873v31.996 M99.54,78.208h31.996 M88.875,88.873v31.996 M99.54,0
						h31.996 M88.875-10.665v-31.996"/>
				</g>
			</g>
		</g>
	</g>
	<g id="g9995" transform="matrix(0.7026078,0,0,-0.7026078,-2047.1135,1073.3221)">
		<g>
			<defs>
				<rect id="SVGID_5_" x="4745.999" y="96.971" width="45.848" height="45.846"/>
			</defs>
			<clipPath id="SVGID_6_">
				<use xlink:href="#SVGID_5_"  overflow="visible"/>
			</clipPath>
			<g id="g9997" clip-path="url(#SVGID_6_)">
				<g id="g9999" transform="translate(4768.8687,152.8934)">
					<path id="path10001" inkscape:connector-curvature="0" d="M0-0.003c9.106,0,16.819-3.159,23.14-9.476
						c6.317-6.277,9.476-13.974,9.476-23.083s-3.1-16.742-9.302-22.906C16.763-61.901,8.993-65.117,0-65.117
						c-8.799,0-16.436,3.195-22.906,9.592c-6.397,6.394-9.596,14.05-9.596,22.963c0,8.876,3.198,16.573,9.596,23.083
						C-16.589-3.161-8.955-0.003,0-0.003 M0.117-5.873c-7.407,0-13.664-2.615-18.782-7.85c-5.311-5.388-7.965-11.665-7.965-18.838
						c0-7.247,2.634-13.487,7.908-18.718c5.269-5.274,11.552-7.91,18.838-7.91c7.245,0,13.566,2.655,18.951,7.966
						c5.118,4.961,7.675,11.182,7.675,18.662c0,7.443-2.597,13.724-7.79,18.838C13.798-8.489,7.521-5.873,0.117-5.873
						 M-14.42-27.967c0.62,3.992,2.229,7.083,4.828,9.272c2.594,2.189,5.754,3.285,9.474,3.285c5.118,0,9.188-1.646,12.21-4.941
						c3.024-3.295,4.535-7.52,4.535-12.674c0-5.001-1.569-9.159-4.708-12.471c-3.139-3.315-7.21-4.971-12.208-4.971
						c-3.685,0-6.864,1.103-9.537,3.312c-2.674,2.209-4.281,5.351-4.826,9.419h8.2c0.193-3.952,2.576-5.927,7.15-5.927
						c2.286,0,4.128,0.986,5.524,2.965c1.394,1.976,2.092,4.611,2.092,7.906c0,3.448-0.64,6.074-1.916,7.876
						c-1.283,1.803-3.124,2.705-5.526,2.705c-4.34,0-6.782-1.919-7.325-5.757h2.382l-6.454-6.454l-6.454,6.454H-14.42z"/>
				</g>
				<g id="g10003" transform="translate(4719.1519,80.7901)">
					<path id="path10005" inkscape:connector-curvature="0" fill="none" stroke="#000000" stroke-width="0.592" d="M0,0h-31.996
						 M10.663-10.665v-31.996 M0,78.208h-31.996 M10.663,88.873v31.996 M99.54,78.208h31.994 M88.876,88.873v31.996 M99.54,0h31.994
						 M88.876-10.665v-31.996"/>
				</g>
			</g>
		</g>
	</g>
	<g id="g10007" transform="matrix(0.7026078,0,0,-0.7026078,-2047.1135,1073.3221)">
		<g>
			<defs>
				<rect id="SVGID_7_" x="4830.302" y="96.971" width="45.847" height="45.846"/>
			</defs>
			<clipPath id="SVGID_8_">
				<use xlink:href="#SVGID_7_"  overflow="visible"/>
			</clipPath>
			<g id="g10009" clip-path="url(#SVGID_8_)">
				<g id="g10011" transform="translate(4853.1729,152.8934)">
					<path id="path10013" inkscape:connector-curvature="0" d="M0-0.003c9.108,0,16.821-3.159,23.141-9.476
						c6.317-6.277,9.476-13.974,9.476-23.083s-3.102-16.742-9.304-22.906C16.764-61.901,8.991-65.117,0-65.117
						c-8.801,0-16.434,3.195-22.908,9.592c-6.394,6.394-9.592,14.05-9.592,22.963c0,8.876,3.199,16.573,9.592,23.083
						C-16.591-3.161-8.954-0.003,0-0.003 M0.115-5.873c-7.402,0-13.662-2.615-18.776-7.85c-5.314-5.388-7.965-11.665-7.965-18.838
						c0-7.247,2.634-13.487,7.903-18.718c5.271-5.274,11.551-7.91,18.838-7.91c7.248,0,13.567,2.655,18.955,7.966
						c5.118,4.961,7.677,11.182,7.677,18.662c0,7.443-2.6,13.724-7.793,18.838C13.797-8.489,7.518-5.873,0.115-5.873 M21.337-33.141
						l0.64-0.29v-9.186l-0.581-0.293l-7.906-3.372l-0.35-0.117l-0.406,0.117l-17.034,7.037l-0.583,0.233l-8.43-3.492l-8.316,3.605
						v8.373l7.795,3.255l-0.062,0.06v9.186l8.841,3.895l19.941-8.256v-8.08L21.337-33.141z M12.093-43.839v5.757h-0.058v0.233
						l-14.942,6.104v-5.931l14.942-6.164v0.06L12.093-43.839z M13.083-36.28l5.231,2.149l-4.824,2.036l-5.118-2.152L13.083-36.28z
						 M19.943-41.281v5.641l-5.814-2.442v-5.697L19.943-41.281z"/>
				</g>
				<g id="g10015" transform="translate(4803.4561,80.7901)">
					<path id="path10017" inkscape:connector-curvature="0" fill="none" stroke="#000000" stroke-width="0.592" d="M0.001,0h-31.996
						 M10.664-10.665v-31.996 M0.001,78.208h-31.996 M10.664,88.873v31.996 M99.539,78.208h31.996 M88.874,88.873v31.996 M99.539,0
						h31.996 M88.874-10.665v-31.996"/>
				</g>
			</g>
		</g>
	</g>
	<g id="g10019" transform="matrix(0.7026078,0,0,-0.7026078,-2047.1135,1073.3221)">
		<g>
			<defs>
				<rect id="SVGID_9_" x="4661.696" y="96.971" width="45.846" height="45.846"/>
			</defs>
			<clipPath id="SVGID_10_">
				<use xlink:href="#SVGID_9_"  overflow="visible"/>
			</clipPath>
			<g id="g10021" clip-path="url(#SVGID_10_)">
				<g id="g10023" transform="translate(4684.5645,152.8934)">
					<path id="path10025" inkscape:connector-curvature="0" d="M-0.001-0.003c9.108,0,16.821-3.159,23.14-9.476
						c6.317-6.277,9.479-13.974,9.479-23.083s-3.104-16.742-9.302-22.906c-6.55-6.434-14.324-9.649-23.316-9.649
						c-8.799,0-16.436,3.195-22.908,9.592c-6.396,6.394-9.591,14.05-9.591,22.963c0,8.876,3.195,16.573,9.591,23.083
						C-16.59-3.161-8.955-0.003-0.001-0.003 M0.114-5.873c-7.402,0-13.662-2.615-18.778-7.85
						c-5.313-5.388-7.965-11.665-7.965-18.838c0-7.247,2.634-13.487,7.906-18.718c5.271-5.274,11.552-7.91,18.837-7.91
						c7.25,0,13.569,2.655,18.957,7.966c5.118,4.961,7.673,11.182,7.673,18.662c0,7.443-2.597,13.724-7.792,18.838
						C13.797-8.489,7.519-5.873,0.114-5.873 M13.372-23.259c0.503,0,0.93-0.173,1.278-0.52c0.35-0.35,0.526-0.776,0.526-1.283
						v-23.953c0-0.503-0.177-0.93-0.526-1.279c-0.348-0.347-0.775-0.523-1.278-0.523h-17.73c-0.508,0-0.931,0.177-1.283,0.523
						c-0.348,0.35-0.523,0.776-0.523,1.279v7.093h-7.09c-0.506,0-0.933,0.173-1.279,0.523c-0.35,0.35-0.526,0.776-0.526,1.279
						v23.953c0,0.466,0.157,0.863,0.466,1.193c0.31,0.33,0.7,0.533,1.163,0.61h0.177H4.477c0.503,0,0.93-0.173,1.279-0.523
						c0.35-0.35,0.521-0.776,0.521-1.279v-7.093H13.372z M-11.514-38.372h5.349v13.311c0,0.466,0.157,0.863,0.465,1.193
						c0.312,0.33,0.681,0.533,1.108,0.61h0.233h7.09v5.294h-14.245V-38.372z M11.629-26.804H-2.616v-20.407h14.245V-26.804z"/>
				</g>
				<g id="g10027" transform="translate(4634.8477,80.7901)">
					<path id="path10029" inkscape:connector-curvature="0" fill="none" stroke="#000000" stroke-width="0.592" d="M-0.001,0
						h-31.994 M10.664-10.665v-31.996 M-0.001,78.208h-31.994 M10.664,88.873v31.996 M99.539,78.208h31.997 M88.875,88.873v31.996
						 M99.539,0h31.997 M88.875-10.665v-31.996"/>
				</g>
			</g>
		</g>
	</g>
</g>
<g id="text2993" transform="translate(-54.489215,-280.29548)" inkscape:export-filename="/Users/massimomenichinelli/Dropbox/openp2pdesign.org/2013/Cava dei Tirreni/toolkit/logo.png" inkscape:export-xdpi="100.01622" inkscape:export-ydpi="100.01622">
	<path id="path2998" inkscape:connector-curvature="0" d="M102.586,358.348c-1.681,0-3.265-0.312-4.752-0.936
		c-1.44-0.624-2.713-1.488-3.816-2.592c-1.104-1.104-1.968-2.376-2.592-3.816c-0.624-1.488-0.937-3.072-0.937-4.752v-24.48
		c0-1.68,0.312-3.24,0.937-4.68c0.624-1.488,1.487-2.784,2.592-3.888c1.104-1.104,2.376-1.968,3.816-2.592
		c1.487-0.624,3.071-0.936,4.752-0.936c1.68,0,3.239,0.312,4.68,0.936c1.488,0.624,2.784,1.488,3.888,2.592
		c1.104,1.104,1.968,2.4,2.592,3.888c0.624,1.44,0.937,3,0.937,4.68v24.48c0,1.68-0.312,3.264-0.937,4.752
		c-0.624,1.44-1.487,2.712-2.592,3.816c-1.104,1.104-2.399,1.968-3.888,2.592C105.825,358.036,104.265,358.348,102.586,358.348
		 M102.586,316.588c-1.44,0-2.664,0.504-3.673,1.512c-1.008,1.008-1.512,2.232-1.512,3.672v24.48c0,1.44,0.504,2.664,1.512,3.672
		c1.009,1.008,2.232,1.512,3.673,1.512c1.439,0,2.663-0.504,3.672-1.512c1.008-1.008,1.512-2.232,1.512-3.672v-24.48
		c0-1.44-0.504-2.664-1.512-3.672C105.249,317.092,104.025,316.588,102.586,316.588"/>
	<path id="path3000" inkscape:connector-curvature="0" d="M124.622,372.532c-0.912,0-1.68-0.312-2.304-0.936
		s-0.937-1.392-0.937-2.304V326.38c0-0.912,0.312-1.68,0.937-2.304s1.392-0.936,2.304-0.936h7.2c1.439,0,2.784,0.288,4.031,0.864
		c1.297,0.528,2.4,1.272,3.312,2.232c0.96,0.912,1.704,2.016,2.232,3.312c0.575,1.248,0.863,2.592,0.863,4.032v13.824
		c0,1.44-0.288,2.808-0.863,4.104c-0.528,1.248-1.272,2.352-2.232,3.312c-0.912,0.912-2.016,1.632-3.312,2.16
		c-1.247,0.576-2.592,0.864-4.031,0.864h-3.96v11.448c0,0.912-0.312,1.68-0.937,2.304S125.534,372.532,124.622,372.532
		 M135.782,333.58c0-1.104-0.384-2.04-1.152-2.808c-0.768-0.768-1.704-1.152-2.808-1.152h-3.96v21.744h3.96
		c1.104,0,2.04-0.384,2.808-1.152c0.769-0.768,1.152-1.704,1.152-2.808V333.58"/>
	<path id="path3002" inkscape:connector-curvature="0" d="M154.982,357.34c-2.016-0.816-3.6-2.088-4.752-3.816
		c-1.152-1.729-1.729-3.672-1.729-5.832v-14.4c0-1.44,0.265-2.784,0.792-4.032c0.576-1.296,1.32-2.4,2.232-3.312
		c0.96-0.96,2.064-1.704,3.312-2.232c1.297-0.576,2.664-0.864,4.104-0.864s2.784,0.288,4.032,0.864
		c1.296,0.528,2.399,1.272,3.312,2.232c0.96,0.912,1.704,2.016,2.232,3.312c0.576,1.248,0.864,2.592,0.864,4.032v7.2
		c0,0.912-0.312,1.68-0.937,2.304c-0.624,0.624-1.392,0.937-2.304,0.937h-11.16v3.96c0,0.816,0.216,1.56,0.647,2.232
		c0.433,0.624,1.032,1.104,1.801,1.44c0.768,0.288,1.536,0.36,2.304,0.216s1.44-0.504,2.016-1.08
		c0.624-0.672,1.368-1.008,2.232-1.008c0.912,0,1.704,0.336,2.376,1.008c0.624,0.672,0.936,1.44,0.936,2.304
		s-0.312,1.632-0.936,2.304c-1.536,1.488-3.336,2.424-5.4,2.808C158.942,358.348,156.95,358.156,154.982,357.34 M158.942,329.332
		c-1.104,0-2.04,0.384-2.808,1.152c-0.769,0.768-1.152,1.704-1.152,2.808v3.96h7.92v-3.96c0-1.104-0.384-2.04-1.152-2.808
		C160.982,329.716,160.046,329.332,158.942,329.332"/>
	<path id="path3004" inkscape:connector-curvature="0" d="M179.044,358.132c-0.912,0-1.68-0.312-2.304-0.936
		s-0.937-1.392-0.937-2.304V326.38c0-0.912,0.312-1.68,0.937-2.304s1.392-0.936,2.304-0.936h7.2c1.439,0,2.784,0.288,4.031,0.864
		c1.297,0.528,2.4,1.272,3.312,2.232c0.96,0.912,1.704,2.016,2.232,3.312c0.575,1.248,0.863,2.592,0.863,4.032v21.312
		c0,0.912-0.336,1.68-1.008,2.304c-0.624,0.624-1.368,0.936-2.231,0.936c-0.912,0-1.681-0.312-2.305-0.936s-0.936-1.392-0.936-2.304
		V333.58c0-1.104-0.384-2.04-1.152-2.808c-0.768-0.768-1.704-1.152-2.808-1.152h-3.96v25.272c0,0.912-0.336,1.68-1.009,2.304
		C180.652,357.82,179.908,358.132,179.044,358.132"/>
	<path id="path3006" inkscape:connector-curvature="0" d="M221.091,358.348c-0.96,0-1.776-0.336-2.448-1.008
		c-0.672-0.672-1.008-1.488-1.008-2.448v-41.76c0-0.816,0.24-1.536,0.72-2.16c0.48-0.624,1.128-1.032,1.944-1.224
		c0.815-0.192,1.584-0.096,2.304,0.288c0.72,0.336,1.248,0.888,1.584,1.656c0.96,2.112,1.944,4.2,2.952,6.264
		c0.816,1.824,1.729,3.768,2.736,5.832c1.008,2.016,1.92,3.912,2.735,5.688c0.816-1.776,1.704-3.672,2.664-5.688
		c1.008-2.064,1.92-4.008,2.736-5.832c0.96-2.064,1.944-4.152,2.952-6.264c0.384-0.768,0.912-1.32,1.584-1.656
		c0.72-0.384,1.488-0.48,2.304-0.288c0.816,0.192,1.464,0.6,1.944,1.224c0.527,0.624,0.792,1.344,0.792,2.16v41.76
		c0,0.96-0.336,1.776-1.008,2.448c-0.673,0.672-1.488,1.008-2.448,1.008s-1.776-0.336-2.448-1.008
		c-0.672-0.672-1.008-1.488-1.008-2.448v-26.28c-0.624,1.296-1.224,2.568-1.8,3.816s-1.104,2.352-1.584,3.312
		c-0.528,1.152-1.057,2.256-1.584,3.312c-0.288,0.624-0.721,1.128-1.296,1.512c-0.528,0.336-1.128,0.504-1.801,0.504
		c-1.487,0-2.544-0.672-3.168-2.016c-0.527-1.056-1.056-2.16-1.584-3.312c-0.479-0.96-1.008-2.064-1.584-3.312
		s-1.151-2.52-1.728-3.816v26.28c0,0.96-0.336,1.776-1.008,2.448C222.867,358.012,222.051,358.348,221.091,358.348"/>
	<path id="path3008" inkscape:connector-curvature="0" d="M260.873,357.34c-2.016-0.816-3.6-2.088-4.752-3.816
		c-1.152-1.729-1.729-3.672-1.729-5.832v-14.4c0-1.44,0.265-2.784,0.792-4.032c0.576-1.296,1.32-2.4,2.232-3.312
		c0.96-0.96,2.064-1.704,3.312-2.232c1.296-0.576,2.663-0.864,4.104-0.864s2.784,0.288,4.032,0.864
		c1.296,0.528,2.399,1.272,3.312,2.232c0.96,0.912,1.704,2.016,2.232,3.312c0.576,1.248,0.864,2.592,0.864,4.032v7.2
		c0,0.912-0.312,1.68-0.937,2.304c-0.624,0.624-1.392,0.937-2.304,0.937h-11.16v3.96c0,0.816,0.216,1.56,0.648,2.232
		c0.432,0.624,1.031,1.104,1.8,1.44c0.768,0.288,1.536,0.36,2.304,0.216s1.44-0.504,2.016-1.08c0.624-0.672,1.368-1.008,2.232-1.008
		c0.912,0,1.704,0.336,2.376,1.008c0.624,0.672,0.936,1.44,0.936,2.304s-0.312,1.632-0.936,2.304
		c-1.536,1.488-3.336,2.424-5.4,2.808C264.833,358.348,262.841,358.156,260.873,357.34 M264.833,329.332
		c-1.104,0-2.04,0.384-2.808,1.152c-0.769,0.768-1.152,1.704-1.152,2.808v3.96h7.92v-3.96c0-1.104-0.384-2.04-1.152-2.808
		C266.873,329.716,265.936,329.332,264.833,329.332"/>
	<path id="path3010" inkscape:connector-curvature="0" d="M281.766,329.62c-0.912,0-1.68-0.312-2.304-0.936
		s-0.937-1.392-0.937-2.304c0-0.912,0.312-1.68,0.937-2.304s1.392-0.936,2.304-0.936h2.52v-11.448c0-0.912,0.312-1.68,0.937-2.304
		s1.392-0.936,2.304-0.936s1.68,0.312,2.304,0.936s0.937,1.392,0.937,2.304v11.448h3.96c0.912,0,1.68,0.312,2.304,0.936
		s0.937,1.392,0.937,2.304c0,0.912-0.312,1.68-0.937,2.304s-1.392,0.936-2.304,0.936h-3.96v18.072c0,1.104,0.384,2.04,1.152,2.808
		c0.768,0.768,1.703,1.152,2.808,1.152c0.912,0,1.68,0.312,2.304,0.936c0.624,0.624,0.937,1.392,0.937,2.304
		s-0.312,1.68-0.937,2.304s-1.392,0.936-2.304,0.936c-1.44,0-2.808-0.288-4.104-0.864c-1.248-0.528-2.352-1.248-3.312-2.16
		c-0.912-0.96-1.656-2.064-2.232-3.312c-0.527-1.296-0.792-2.664-0.792-4.104V329.62H281.766L281.766,329.62"/>
	<path id="path3012" inkscape:connector-curvature="0" d="M314.59,336.964v-3.816c0-0.768-0.217-1.464-0.648-2.088
		c-0.432-0.672-1.008-1.152-1.728-1.44c-0.721-0.288-1.465-0.36-2.232-0.216s-1.416,0.504-1.944,1.08
		c-0.624,0.624-1.392,0.936-2.304,0.936c-0.864,0-1.607-0.312-2.231-0.936c-0.673-0.672-1.009-1.44-1.009-2.304
		s0.336-1.632,1.009-2.304c1.487-1.488,3.239-2.424,5.256-2.808c2.016-0.432,3.983-0.24,5.903,0.576
		c1.969,0.816,3.528,2.088,4.681,3.816c1.151,1.68,1.728,3.576,1.728,5.688v21.456c0,0.912-0.312,1.68-0.936,2.304
		s-1.393,0.936-2.305,0.936h-7.199c-1.44,0-2.809-0.288-4.104-0.864c-1.248-0.528-2.352-1.248-3.312-2.16
		c-0.912-0.96-1.656-2.064-2.232-3.312c-0.528-1.296-0.792-2.664-0.792-4.104c0-1.44,0.264-2.784,0.792-4.032
		c0.576-1.296,1.32-2.4,2.232-3.312c0.96-0.96,2.063-1.704,3.312-2.232c1.296-0.576,2.664-0.864,4.104-0.864H314.59 M310.63,343.444
		c-1.104,0-2.04,0.384-2.809,1.152c-0.768,0.768-1.151,1.704-1.151,2.808c0,1.104,0.384,2.04,1.151,2.808
		c0.769,0.768,1.704,1.152,2.809,1.152h3.96v-7.92L310.63,343.444"/>
	<path id="path3014" inkscape:connector-curvature="0" d="M340.262,309.964c1.681,0,3.24,0.312,4.681,0.937
		c1.487,0.624,2.783,1.488,3.888,2.592c1.104,1.104,1.968,2.4,2.592,3.888c0.624,1.44,0.937,3,0.937,4.68v23.904
		c0,1.68-0.312,3.264-0.937,4.752c-0.624,1.44-1.488,2.712-2.592,3.816c-1.104,1.104-2.4,1.968-3.888,2.592
		c-1.44,0.624-3,0.936-4.681,0.936h-8.64c-0.96,0-1.776-0.336-2.448-1.008s-1.008-1.488-1.008-2.448V313.42
		c0-0.96,0.336-1.775,1.008-2.448c0.672-0.672,1.488-1.008,2.448-1.008L340.262,309.964 M345.446,322.06
		c0-1.44-0.504-2.664-1.513-3.672c-1.008-1.008-2.231-1.512-3.672-1.512h-5.184v34.272h5.184c1.44,0,2.664-0.504,3.672-1.512
		c1.009-1.008,1.513-2.232,1.513-3.672V322.06"/>
	<path id="path3016" inkscape:connector-curvature="0" d="M364.795,357.34c-2.017-0.816-3.601-2.088-4.752-3.816
		c-1.152-1.729-1.729-3.672-1.729-5.832v-14.4c0-1.44,0.265-2.784,0.792-4.032c0.576-1.296,1.32-2.4,2.232-3.312
		c0.96-0.96,2.063-1.704,3.312-2.232c1.296-0.576,2.664-0.864,4.104-0.864c1.439,0,2.783,0.288,4.031,0.864
		c1.297,0.528,2.4,1.272,3.312,2.232c0.96,0.912,1.704,2.016,2.232,3.312c0.575,1.248,0.863,2.592,0.863,4.032v7.2
		c0,0.912-0.312,1.68-0.936,2.304c-0.624,0.624-1.393,0.937-2.304,0.937h-11.16v3.96c0,0.816,0.216,1.56,0.647,2.232
		c0.433,0.624,1.032,1.104,1.8,1.44c0.769,0.288,1.536,0.36,2.305,0.216c0.768-0.144,1.439-0.504,2.016-1.08
		c0.624-0.672,1.368-1.008,2.232-1.008c0.912,0,1.704,0.336,2.376,1.008c0.624,0.672,0.936,1.44,0.936,2.304
		s-0.312,1.632-0.936,2.304c-1.536,1.488-3.336,2.424-5.4,2.808C368.755,358.348,366.762,358.156,364.795,357.34 M368.755,329.332
		c-1.104,0-2.04,0.384-2.809,1.152c-0.768,0.768-1.151,1.704-1.151,2.808v3.96h7.92v-3.96c0-1.104-0.384-2.04-1.152-2.808
		C370.795,329.716,369.858,329.332,368.755,329.332"/>
	<path id="path3018" inkscape:connector-curvature="0" d="M395.408,350.716c0.864-0.72,1.248-1.656,1.152-2.808
		c-0.097-1.2-0.576-2.088-1.44-2.664l-6.768-4.68c-1.2-0.864-2.16-1.92-2.881-3.168c-0.72-1.296-1.128-2.688-1.224-4.176
		s0.12-2.904,0.648-4.248c0.575-1.392,1.416-2.592,2.52-3.6c1.104-0.96,2.353-1.656,3.744-2.088s2.832-0.528,4.32-0.288
		c1.439,0.24,2.76,0.768,3.96,1.584c1.199,0.816,2.184,1.872,2.951,3.168c0.433,0.768,0.528,1.584,0.288,2.448
		c-0.191,0.864-0.695,1.512-1.512,1.944c-0.768,0.432-1.584,0.552-2.448,0.36c-0.863-0.24-1.512-0.744-1.943-1.512
		c-0.528-0.912-1.296-1.44-2.305-1.584c-0.96-0.192-1.848,0.072-2.664,0.792c-0.815,0.672-1.176,1.536-1.079,2.592
		c0.096,1.008,0.552,1.824,1.367,2.448l6.696,4.68c1.248,0.912,2.232,2.016,2.952,3.312c0.768,1.296,1.2,2.712,1.296,4.248
		s-0.144,3-0.72,4.392c-0.528,1.392-1.368,2.616-2.521,3.672c-1.104,1.008-2.376,1.728-3.815,2.16
		c-1.44,0.432-2.929,0.528-4.464,0.288c-1.536-0.24-2.929-0.768-4.177-1.584c-1.199-0.864-2.184-1.968-2.951-3.312
		c-0.433-0.768-0.553-1.584-0.36-2.448c0.24-0.864,0.744-1.512,1.512-1.944c0.816-0.432,1.656-0.528,2.521-0.288
		c0.863,0.192,1.512,0.672,1.943,1.44c0.528,1.008,1.368,1.584,2.521,1.728C393.584,351.772,394.544,351.484,395.408,350.716"/>
	<path id="path3020" inkscape:connector-curvature="0" d="M412.481,319.252c-1.104,0-2.04-0.384-2.809-1.152
		c-0.768-0.768-1.151-1.704-1.151-2.808s0.384-2.04,1.151-2.808c0.769-0.768,1.704-1.152,2.809-1.152
		c1.104,0,2.04,0.384,2.808,1.152c0.768,0.768,1.152,1.704,1.152,2.808s-0.384,2.04-1.152,2.808
		C414.521,318.868,413.585,319.252,412.481,319.252 M415.72,354.892c0,0.912-0.312,1.68-0.936,2.304s-1.392,0.936-2.304,0.936
		s-1.681-0.312-2.305-0.936s-0.936-1.392-0.936-2.304v-28.8c0-0.912,0.312-1.68,0.936-2.304s1.393-0.936,2.305-0.936
		s1.68,0.312,2.304,0.936s0.936,1.392,0.936,2.304V354.892"/>
	<path id="path3022" inkscape:connector-curvature="0" d="M433.161,357.844c-1.44,0-2.809-0.288-4.104-0.864
		c-1.248-0.528-2.352-1.248-3.312-2.16c-0.912-0.96-1.656-2.064-2.232-3.312c-0.528-1.296-0.792-2.664-0.792-4.104V333.58
		c0-1.44,0.265-2.784,0.792-4.032c0.576-1.296,1.32-2.4,2.232-3.312c0.96-0.96,2.063-1.704,3.312-2.232
		c1.296-0.576,2.664-0.864,4.104-0.864h7.2c0.911,0,1.68,0.312,2.304,0.936s0.936,1.392,0.936,2.304v35.712
		c0,2.16-0.576,4.104-1.728,5.832c-1.152,1.729-2.712,3-4.681,3.816c-2.016,0.816-4.056,1.008-6.119,0.576
		c-2.017-0.384-3.769-1.32-5.257-2.808c-0.672-0.672-1.008-1.44-1.008-2.304c0-0.864,0.336-1.632,1.008-2.304
		c0.624-0.672,1.368-1.008,2.232-1.008c0.912,0,1.68,0.336,2.304,1.008c0.576,0.576,1.248,0.936,2.017,1.08
		c0.815,0.144,1.584,0.072,2.304-0.216c0.768-0.336,1.368-0.84,1.8-1.512c0.433-0.624,0.648-1.344,0.648-2.16v-4.248H433.161
		 M433.161,329.62c-1.104,0-2.04,0.384-2.809,1.152c-0.768,0.768-1.151,1.704-1.151,2.808v13.824c0,1.104,0.384,2.04,1.151,2.808
		c0.769,0.768,1.704,1.152,2.809,1.152h3.96V329.62H433.161"/>
	<path id="path3024" inkscape:connector-curvature="0" d="M454.387,358.132c-0.912,0-1.681-0.312-2.305-0.936
		s-0.936-1.392-0.936-2.304V326.38c0-0.912,0.312-1.68,0.936-2.304s1.393-0.936,2.305-0.936h7.199c1.44,0,2.784,0.288,4.032,0.864
		c1.296,0.528,2.4,1.272,3.312,2.232c0.96,0.912,1.704,2.016,2.231,3.312c0.576,1.248,0.864,2.592,0.864,4.032v21.312
		c0,0.912-0.336,1.68-1.008,2.304c-0.624,0.624-1.368,0.936-2.232,0.936c-0.912,0-1.68-0.312-2.304-0.936s-0.936-1.392-0.936-2.304
		V333.58c0-1.104-0.385-2.04-1.152-2.808c-0.769-0.768-1.704-1.152-2.809-1.152h-3.96v25.272c0,0.912-0.336,1.68-1.008,2.304
		C455.995,357.82,455.251,358.132,454.387,358.132"/>
</g>
<text transform="matrix(1 0 0 1 494.0233 77.9528)" font-family="'TitilliumText25L-600wt'" font-size="40">System Map</text>
<text transform="matrix(1 0 0 1 425.1971 77.9528)" font-family="'TitilliumText25L-600wt'" font-size="20">0.1</text>
<rect id="rect25259" x="35.433" y="113.386" fill="#F6F6F6" stroke="#000000" stroke-width="1.7908" stroke-linejoin="round" width="1417.323" height="832.676"/>
<text transform="matrix(1 0 0 1 35.4334 1008.9284)" font-family="'TitilliumText25L-600wt'" font-size="14">Designed by:</text>
<text transform="matrix(1 0 0 1 36.7635 973.4958)" font-family="'TitilliumText25L-600wt'" font-size="14">Project:</text>
<text transform="matrix(1 0 0 1 407.4808 973.4958)" font-family="'TitilliumText25L-600wt'" font-size="14">Link:</text>
<text transform="matrix(1 0 0 1 406.6776 1008.9284)" font-family="'TitilliumText25L-600wt'" font-size="14">Designed for:</text>
<path id="path25277" inkscape:connector-curvature="0" sodipodi:nodetypes="cc" fill="none" stroke="#CFCFCF" stroke-width="1.4127" stroke-dasharray="1.4127,4.238" d="
	M90.619,973.496c246.404,0,299.145,0,299.145,0"/>
<path id="path25279" inkscape:connector-curvature="0" sodipodi:nodetypes="cc" fill="none" stroke="#CFCFCF" stroke-width="1.5027" stroke-dasharray="1.5027,4.508" d="
	M442.865,973.496c298.713,0,318.946,0,318.946,0"/>
<path id="path25281" inkscape:connector-curvature="0" sodipodi:nodetypes="cc" fill="none" stroke="#CFCFCF" stroke-width="1.3717" stroke-dasharray="1.3717,4.1152" d="
	M121.691,1008.929c232.333,0,268.072,0,268.072,0"/>
<path id="path25301" inkscape:connector-curvature="0" sodipodi:nodetypes="cc" fill="none" stroke="#CFCFCF" stroke-width="1.3717" stroke-dasharray="1.3717,4.1152" d="
	M495.239,1008.929c232.333,0,267.929,0,267.929,0"/>
<a id="layer1" xlink:href="http://creativecommons.org/licenses/by-sa/3.0/"  transform="translate(0,2.988066e-5)" inkscape:label="Layout" inkscape:groupmode="layer" xlink:title="CC BY-SA">
	
		<a id="a3150" xlink:href="http://www.mepss.nl/index.php?p=tool&amp;l4=W21"  xlink:title="http://www.mepss.nl/index.php?p=tool&amp;l4=W21">
		<text transform="matrix(1.7791 0 0 1.7791 -569.6609 840.2839)" font-family="'TitilliumText25L-250wt'" font-size="9">Original development of the System Map: http://www.mepss.nl/index.php?p=tool&amp;l4=W21</text>
	</a>
	<text transform="matrix(1.7791 0 0 1.7791 -177.7006 -527.3608)" font-family="'TitilliumText25L-800wt'" font-size="15">Boundaries of the Activity</text>
</a>
<rect id="rect5744" x="48.536" y="771.748" opacity="0.5" fill="#FFFFFF" stroke="#797979" stroke-width="4.0422" stroke-dasharray="4.0422,8.0843" enable-background="new    " width="363.794" height="157.582"/>
<rect id="rect3155" x="425.197" y="255.118" fill="#FFFFFF" stroke="#000000" stroke-width="7.0866" width="761.81" height="442.913"/>
<path id="path4266" stroke="#000000" d="M136.487,858.14l-14.941,8.636v-17.273L136.487,858.14z"/>
<path id="path4112" inkscape:connector-curvature="0" stroke="#000000" d="M125.194,859.39"/>
<path id="path4932" inkscape:connector-curvature="0" opacity="0.5" stroke="#000000" enable-background="new    " d="
	M125.194,881.972"/>
<text transform="matrix(1 0 0 1 69.9549 804.4265)" font-family="'TitilliumText25L-800wt'" font-size="11">Material flow</text>
<path id="path4203" stroke="#000000" d="M256.018,853.344l-5.011,5.012l5.011,5.01l5.011-5.01L256.018,853.344z"/>
<path id="path4934" inkscape:connector-curvature="0" stroke="#000000" d="M256.018,858.355"/>
<text transform="matrix(1 0 0 1 191.0584 804.4265)" font-family="'TitilliumText25L-800wt'" font-size="11">Information flow</text>
<text transform="matrix(1 0 0 1 326.2322 804.4265)" font-family="'TitilliumText25L-800wt'" font-size="11">Financial flow</text>
<text transform="matrix(1 0 0 1 81.7137 882.4265)" font-family="'TitilliumText25L-400wt'" font-size="10">Core flow</text>
<text transform="matrix(1 0 0 1 211.0662 882.4265)" font-family="'TitilliumText25L-400wt'" font-size="10">Core flow</text>
<text transform="matrix(1 0 0 1 339.5911 882.4265)" font-family="'TitilliumText25L-400wt'" font-size="10">Core flow</text>
<g id="layer2" inkscape:label="Editable text" inkscape:groupmode="layer">
	<text transform="matrix(1 0 0 1 119.6707 1008.9294)" font-family="'TitilliumText25L-250wt'" font-size="14">Name Surname - ...</text>
	<text transform="matrix(1 0 0 1 88.5828 973.4958)" font-family="'TitilliumText25L-250wt'" font-size="14">Name of the project</text>
	<text transform="matrix(1 0 0 1 440.8934 973.4958)" font-family="'TitilliumText25L-250wt'" font-size="14">http://www.google.com</text>
	<text transform="matrix(1 0 0 1 493.8118 1008.9294)" font-family="'TitilliumText25L-250wt'" font-size="14">Community / Place / Organization</text>
</g>
<path fill="#CD3594" d="M851.119,437.777c0,7.555-6.125,13.679-13.68,13.679h-37.52c-7.553,0-13.677-6.124-13.677-13.679l0,0
	c0-7.555,6.124-13.679,13.677-13.679h37.52C844.994,424.098,851.119,430.222,851.119,437.777L851.119,437.777z"/>
<g>
	<rect x="765.139" y="431.288" fill="none" width="110.213" height="24.623"/>
	<text transform="matrix(1 0 0 1 811.0198 442.8958)" fill="#FFFFFF" font-family="'Futura-Medium'" font-size="14.0698">FIF</text>
</g>
<rect x="394.634" y="430.938" fill="none" width="133.663" height="46.898"/>
<text transform="matrix(1 0 0 1 457.618 442.5442)" font-family="'Futura-Medium'" font-size="14.0698">DESIGNER</text>
<g>
	<rect x="1088.744" y="438.559" fill="none" width="83.245" height="46.898"/>
	<text transform="matrix(1 0 0 1 1109.6702 450.1653)" font-family="'Futura-Medium'" font-size="14.0698">BYERS</text>
</g>
<g>
	<rect x="765.334" y="735.478" fill="none" width="127.6" height="30.201"/>
	<text transform="matrix(1 0 0 1 795.3089 747.0857)" font-family="'Futura-Medium'" font-size="14.0698">Production</text>
</g>
<g>
	<rect x="860.04" y="587.543" fill="none" width="270.845" height="49.244"/>
	<text transform="matrix(1 0 0 1 956.9144 599.1492)" font-family="'Futura-Medium'" font-size="14.0698">Foundations </text>
</g>
<g>
	<rect x="921.326" y="513.353" fill="none" width="119.007" height="24.998"/>
	<text transform="matrix(1 0 0 1 959.9847 524.9587)" font-family="'Futura-Medium'" font-size="14.0698">Media</text>
</g>
<g>
	<rect x="932.879" y="346.251" fill="none" width="109.041" height="23.919"/>
	<text transform="matrix(1 0 0 1 951.9485 357.8577)" font-family="'Futura-Medium'" font-size="14.0698">Goverment</text>
</g>
<g>
	<rect x="901.416" y="448.329" fill="none" width="171.966" height="15.633"/>
	<text transform="matrix(1 0 0 1 936.0374 458.0017)" font-family="'Futura-Medium'" font-size="11.7248">delivery of network</text>
</g>
<path fill="none" stroke="#EE4384" stroke-width="2" stroke-dasharray="1,10" d="M752.241,429.179"/>
<path fill="none" stroke="#EE4384" stroke-width="2" stroke-dasharray="1,10" d="M566.989,429.179"/>
<g>
	<path fill="none" stroke="#231F20" stroke-width="2" stroke-dasharray="4,4" d="M513.25,459.6v157.271
		c0,5.501,4.5,10.001,10,10.001h435.475c5.501,0,10.001-4.118,10.001-9.152s0-9.152,0-9.152"/>
</g>
<g>
	<rect x="880.313" y="529.363" fill="none" width="214.174" height="15.631"/>
	<text transform="matrix(1 0 0 1 919.7073 539.0349)" font-family="'Futura-Medium'" font-size="11.7248">delivery of compact news </text>
</g>
<g>
	<rect x="598.229" y="512.448" fill="none" width="119.007" height="24.999"/>
	<text transform="matrix(1 0 0 1 626.5159 524.0554)" font-family="'Futura-Medium'" font-size="14.0698">University</text>
</g>
<g>
	<rect x="558.268" y="530.99" fill="none" width="198.931" height="15.631"/>
	<text transform="matrix(1 0 0 1 601.4622 540.6619)" font-family="'Futura-Medium'" font-size="11.7248">providing educatition</text>
</g>
<g>
	<rect x="574.095" y="447.157" fill="none" width="167.277" height="15.632"/>
	<text transform="matrix(1 0 0 1 600.5027 456.8293)" font-family="'Futura-Medium'" font-size="11.7248">providing information</text>
</g>
<g>
	<path fill="none" stroke="#231F20" stroke-dasharray="2,2" d="M525.947,459.662v48.624c0,5.501,4.5,10.001,10,10.001h80.283"/>
</g>
<path id="path4203_43_" stroke="#000000" d="M526.398,455.114l-2.651,2.65l2.651,2.652l2.65-2.652L526.398,455.114z"/>
<g>
	<g>
		<path fill="none" stroke="#231F20" stroke-dasharray="2,2" d="M785.379,460.835v48.625c0,5.501-4.5,10.001-10.001,10.001h-80.283"
			/>
	</g>
	<path id="path4203_41_" stroke="#000000" d="M782.278,458.936l2.65,2.652l2.65-2.652l-2.65-2.65L782.278,458.936z"/>
	<path id="path4203_40_" stroke="#000000" d="M693.172,518.733l2.65,2.652l2.65-2.652l-2.65-2.649L693.172,518.733z"/>
</g>
<g>
	<path fill="none" stroke="#231F20" stroke-dasharray="2,2" d="M855.611,460.835v48.625c0,5.5,4.5,10,10.001,10h80.282"/>
</g>
<path id="path4203_38_" stroke="#000000" d="M945.168,516.083l-2.65,2.649l2.65,2.652l2.65-2.652L945.168,516.083z"/>
<g>
	<path fill="none" stroke="#231F20" stroke-dasharray="2,2" d="M847.368,460.835v120.146c0,5.501,4.5,10.001,10.001,10.001h88.524"
		/>
</g>
<path id="path4203_36_" stroke="#000000" d="M945.168,587.605l-2.65,2.648l2.65,2.652l2.65-2.652L945.168,587.605z"/>
<g>
	<g>
		<path fill="none" stroke="#231F20" stroke-dasharray="2,2" d="M808.438,460.835v120.146c0,5.501-4.5,10.001-10.001,10.001h-88.524
			"/>
	</g>
	<path id="path4203_35_" stroke="#000000" d="M706.988,590.254l2.65,2.652l2.651-2.652l-2.651-2.648L706.988,590.254z"/>
</g>
<g>
	<line fill="none" stroke="#231F20" stroke-dasharray="2,2" x1="543.93" y1="440.904" x2="772.563" y2="440.904"/>
	<path id="path4203_34_" stroke="#000000" d="M540.049,440.176l2.65,2.651l2.651-2.651l-2.651-2.65L540.049,440.176z"/>
	<path id="path4203_33_" stroke="#000000" d="M772.648,440.596l2.65,2.651l2.65-2.651l-2.65-2.65L772.648,440.596z"/>
</g>
<g>
	<line fill="none" stroke="#231F20" stroke-dasharray="2,2" x1="865.19" y1="442.858" x2="1093.823" y2="442.858"/>
	<path id="path4203_32_" stroke="#000000" d="M861.31,442.129l2.65,2.651l2.65-2.651l-2.65-2.65L861.31,442.129z"/>
	<path id="path4203_31_" stroke="#000000" d="M1093.906,442.55l2.652,2.651l2.65-2.651l-2.65-2.65L1093.906,442.55z"/>
</g>
<g>
	<line fill="none" stroke="#231F20" stroke-dasharray="2,2" x1="823.41" y1="460.167" x2="823.41" y2="719.285"/>
	<path id="path4203_30_" stroke="#000000" d="M824.139,456.286l-2.65,2.65l2.65,2.651l2.65-2.651L824.139,456.286z"/>
	<path id="path4203_29_" stroke="#000000" d="M823.719,719.369l-2.65,2.65l2.65,2.65l2.65-2.65L823.719,719.369z"/>
</g>
<path id="path4203_28_" fill="none" stroke="#000000" d="M513.25,451.318l-4.142,4.14l4.142,4.143l4.141-4.143L513.25,451.318z"/>
<path id="path4203_27_" fill="none" stroke="#000000" d="M825.66,408.936l-4.142,4.14l4.142,4.143l4.142-4.143L825.66,408.936z"/>
<g>
	<path fill="none" stroke="#231F20" stroke-width="4" d="M874.317,745.205h245.436c5.501,0,10.001-4.5,10.001-10V479.298"/>
</g>
<path id="path4203_26_" stroke="#000000" d="M1122.436,481.653h15.285l-7.645-11.517L1122.436,481.653z"/>
<g>
	<g>
		<path fill="none" stroke="#231F20" stroke-dasharray="2,2" d="M480.22,458.49V732.23c0,5.502,4.5,10.002,10,10.002h293.674"/>
	</g>
	<path id="path4203_22_" stroke="#000000" d="M480.671,453.941l-2.65,2.65l2.65,2.651l2.651-2.651L480.671,453.941z"/>
	<path id="path4203_5_" stroke="#000000" d="M783.169,738.853l-2.65,2.65l2.65,2.652l2.65-2.652L783.169,738.853z"/>
</g>
<g>
	<path fill="none" stroke="#231F20" stroke-width="2" stroke-dasharray="4,4" d="M825.25,410.6v-47.727c0-5.5,4.5-10,10.001-10
		h109.476"/>
</g>
<g>
	<path fill="none" stroke="#231F20" stroke-width="2" stroke-dasharray="4,4" d="M1047.353,594.973h109.272
		c5.501,0,10.001-4.5,10.001-10.001V363.497c0-5.5-4.5-10-10.001-10h-127.051"/>
</g>
<g>
	<path fill="none" stroke="#231F20" stroke-width="2" stroke-dasharray="4,4" d="M835.368,460.835v128.146
		c0,5.501,4.5,10.001,10.001,10.001h101.524"/>
</g>
<path id="path4203_2_" fill="#FFFFFF" stroke="#000000" d="M835.66,456.286l-4.142,4.14l4.142,4.143l4.142-4.143L835.66,456.286z"/>
<path id="path4203_3_" fill="#FFFFFF" stroke="#000000" d="M1045.594,590.681l-4.142,4.141l4.142,4.143l4.142-4.143
	L1045.594,590.681z"/>
<g>
	<rect x="1221.354" y="513.376" fill="none" width="127.6" height="30.201"/>
	<text transform="matrix(1 0 0 1 1254.8635 524.9832)" font-family="'Futura-Medium'" font-size="14.0698">End users</text>
</g>
<g>
	<rect x="1221.354" y="441.478" fill="none" width="127.6" height="30.201"/>
	<text transform="matrix(1 0 0 1 1260.5208 453.0857)" font-family="'Futura-Medium'" font-size="14.0698">Retailor</text>
</g>
<g>
	<line fill="none" stroke="#231F20" stroke-width="4" x1="1158.317" y1="445.205" x2="1245.594" y2="445.205"/>
</g>
<path id="path4203_4_" stroke="#000000" d="M1239.321,437.253v15.285l11.517-7.645L1239.321,437.253z"/>
<g>
	<line fill="none" stroke="#231F20" stroke-width="4" x1="1285.267" y1="460.681" x2="1285.267" y2="499.912"/>
</g>
<path id="path4203_6_" stroke="#000000" d="M1293.219,493.638h-15.284l7.644,11.517L1293.219,493.638z"/>
<g>
	<rect x="559.831" y="582.379" fill="none" width="195.804" height="49.244"/>
	<text transform="matrix(1 0 0 1 613.0882 593.9861)" font-family="'Futura-Medium'" font-size="14.0698">Organisations</text>
</g>
<g>
	<rect x="518.404" y="599.748" fill="none" width="278.659" height="15.633"/>
	<text transform="matrix(1 0 0 1 551.4734 609.4207)" font-family="'Futura-Medium'" font-size="11.7248">providing expertice business knowledge</text>
</g>
<line fill="none" stroke="#231F20" stroke-dasharray="2,2" x1="1015.19" y1="520.857" x2="1243.823" y2="520.857"/>
<path id="path4203_7_" stroke="#000000" d="M1243.906,520.551l2.652,2.65l2.65-2.65l-2.65-2.65L1243.906,520.551z"/>
<path id="path4203_8_" stroke="#000000" d="M808.088,456.286l-2.65,2.648l2.65,2.652l2.65-2.652L808.088,456.286z"/>
<path id="path4203_9_" fill="none" stroke="#000000" d="M513.66,412.935l-4.142,4.141l4.142,4.143l4.142-4.143L513.66,412.935z"/>
<g>
	<path fill="none" stroke="#231F20" stroke-width="2" stroke-dasharray="4,4" d="M513.25,411.413V228.379c0-5.5,4.5-10,10-10
		h603.342c5.501,0,10.001,4.5,10.001,10v202.303"/>
</g>
<path id="path4203_10_" fill="none" stroke="#000000" d="M494.317,412.127l-4.142,4.141l4.142,4.143l4.142-4.143L494.317,412.127z"
	/>
<g>
	<path fill="none" stroke="#231F20" stroke-width="2" stroke-dasharray="4,4" d="M493.906,411.552V214.065c0-5.5,4.5-10,10-10
		h772.343c5.501,0,10.001,4.5,10.001,10v215.808"/>
</g>
<g>
	<path fill="none" stroke="#231F20" stroke-width="4" d="M473.906,415.557V193.066c0-5.5,4.5-10,10-10h845.343
		c5.501,0,10.001,4.5,10.001,10v318.807c0,5.5-2.173,10-4.828,10s-4.828,0-4.828,0"/>
</g>
<path id="path4203_11_" stroke="#000000" d="M1331.335,529.039v-15.284l-11.517,7.644L1331.335,529.039z"/>
<line fill="none" stroke="#231F20" stroke-width="2" stroke-dasharray="4,4" x1="540.466" y1="430.084" x2="769.1" y2="430.084"/>
<path id="path4203_12_" fill="none" stroke="#000000" d="M773.683,425.493l-4.142,4.141l4.142,4.143l4.142-4.143L773.683,425.493z"
	/>
<line fill="none" stroke="#231F20" stroke-width="2" stroke-dasharray="4,4" x1="320.706" y1="858.075" x2="379.203" y2="858.075"/>
<g>
	<line fill="none" stroke="#231F20" stroke-dasharray="2,2" x1="586.93" y1="632.904" x2="815.563" y2="632.904"/>
	<path id="path4203_14_" stroke="#000000" d="M583.049,632.176l2.65,2.65l2.651-2.65l-2.651-2.65L583.049,632.176z"/>
	<path id="path4203_13_" stroke="#000000" d="M815.648,632.595l2.65,2.652l2.65-2.652l-2.65-2.649L815.648,632.595z"/>
</g>
<path id="path4203_15_" fill="none" stroke="#000000" d="M385.202,853.474l-4.142,4.141l4.142,4.143l4.142-4.143L385.202,853.474z"
	/>
<line fill="none" stroke="#231F20" stroke-dasharray="2,2" x1="185.713" y1="858.396" x2="250.091" y2="858.396"/>
<path id="path4203_16_" stroke="#000000" d="M250.176,858.088l2.65,2.652l2.65-2.652l-2.65-2.649L250.176,858.088z"/>
<g>
	<line fill="none" stroke="#231F20" stroke-width="4" x1="67.219" y1="859.197" x2="127.625" y2="859.197"/>
</g>
<g>
	<rect x="598.229" y="344.953" fill="none" width="119.008" height="24.999"/>
	<text transform="matrix(1 0 0 1 637.6932 356.5598)" font-family="'Futura-Medium'" font-size="14.0698">Events</text>
</g>
<g>
	<path fill="none" stroke="#231F20" stroke-width="2" stroke-dasharray="4,4" d="M812.039,410.6v-47.727c0-5.5-4.5-10-10.001-10
		H682.576"/>
</g>
<path id="path4203_1_" fill="none" stroke="#000000" d="M811.594,409.066l-4.142,4.14l4.142,4.143l4.142-4.143L811.594,409.066z"/>
<path id="path4203_17_" fill="none" stroke="#000000" d="M526.452,412.541l-4.142,4.14l4.142,4.143l4.142-4.143L526.452,412.541z"/>
<g>
	<path fill="none" stroke="#231F20" stroke-width="2" stroke-dasharray="4,4" d="M526.039,414.933v-53.06c0-5.5,4.5-10,10-10h95.537
		"/>
</g>
</svg>
