<?xml version="1.0" encoding="utf-8"?>
<!-- Generator: Adobe Illustrator 15.1.0, SVG Export Plug-In . SVG Version: 6.00 Build 0)  -->
<!DOCTYPE svg PUBLIC "-//W3C//DTD SVG 1.1//EN" "http://www.w3.org/Graphics/SVG/1.1/DTD/svg11.dtd">
<svg version="1.1"
	 id="svg10067" inkscape:version="0.48.2 r9819" inkscape:export-ydpi="200" inkscape:export-xdpi="200" inkscape:export-filename="../03.design_system_map.png" xmlns:svg="http://www.w3.org/2000/svg" xmlns:inkscape="http://www.inkscape.org/namespaces/inkscape" xmlns:sodipodi="http://sodipodi.sourceforge.net/DTD/sodipodi-0.dtd" xmlns:rdf="http://www.w3.org/1999/02/22-rdf-syntax-ns#" xmlns:cc="http://creativecommons.org/ns#" xmlns:dc="http://purl.org/dc/elements/1.1/" sodipodi:docname="03.design_system_map.svg"
	 xmlns="http://www.w3.org/2000/svg" xmlns:xlink="http://www.w3.org/1999/xlink" x="0px" y="0px" width="1488.189px"
	 height="1052.363px" viewBox="0 0 1488.189 1052.363" enable-background="new 0 0 1488.189 1052.363" xml:space="preserve">
<sodipodi:namedview  units="mm" id="base" inkscape:window-maximized="1" borderopacity="1.0" bordercolor="#666666" showgrid="true" pagecolor="#ffffff" inkscape:cx="744.09448" inkscape:cy="526.18109" inkscape:zoom="0.45991771" showguides="false" inkscape:pageshadow="2" inkscape:pageopacity="1" inkscape:current-layer="layer1" inkscape:document-units="mm" inkscape:guide-bbox="true" inkscape:window-y="0" inkscape:window-x="0" inkscape:window-height="795" inkscape:window-width="1440">
	<sodipodi:guide  id="guide24376" position="478.34646,974.40945" orientation="0,1"></sodipodi:guide>
	<sodipodi:guide  id="guide24416" position="35.433071,938.97638" orientation="1,0"></sodipodi:guide>
	<sodipodi:guide  id="guide24418" position="1452.7559,921.25984" orientation="1,0"></sodipodi:guide>
	<sodipodi:guide  id="guide24420" position="974.40945,106.29921" orientation="0,1"></sodipodi:guide>
	<sodipodi:guide  id="guide24422" position="389.76378,938.97638" orientation="0,1"></sodipodi:guide>
	<sodipodi:guide  id="guide24424" position="701.5748,1009.8425" orientation="0,1"></sodipodi:guide>
	<sodipodi:guide  id="guide25257" position="230.31496,921.25984" orientation="0,1"></sodipodi:guide>
</sodipodi:namedview>
<a id="a24212" xlink:href="http://creativecommons.org/licenses/by-sa/3.0/"  transform="matrix(0.56208624,0,0,0.56208624,1028.2309,500.82271)" xlink:title="CC BY-SA">
	<text transform="matrix(1.7791 0 0 1.7791 -406.8837 834.9454)" font-family="'ArialMT'" font-size="9">This work is licensed under the Creative Commons Attribution-Share Alike 3.0 Unported License.</text>
	<text transform="matrix(1.7791 0 0 1.7791 255.3034 834.9454)" font-family="'ArialMT'" font-size="10"> </text>
	<text transform="matrix(1.7791 0 0 1.7791 -406.8837 854.9636)" font-family="'ArialMT'" font-size="9">To view a copy of this license, visit http://creativecommons.org/licenses/by-sa/3.0/</text>
	<text transform="matrix(1.7791 0 0 1.7791 178.4169 854.9636)" font-family="'ArialMT'" font-size="10"> </text>
	<text transform="matrix(1.7791 0 0 1.7791 -406.8837 874.9783)" font-family="'ArialMT'" font-size="9">or send a letter to Creative Commons, 171 Second Street, Suite 300, San Francisco, California, 94105, USA.</text>
</a>
<g id="g25400" transform="matrix(0.83432244,0,0,0.83432244,242.1812,154.35087)">
	<g id="g9971" transform="matrix(0.7026078,0,0,-0.7026078,-2047.1135,1073.3221)">
		<g>
			<g>
				<defs>
					<rect id="SVGID_1_" x="4933.234" y="106.456" width="26.875" height="26.875"/>
				</defs>
				<clipPath id="SVGID_2_">
					<use xlink:href="#SVGID_1_"  overflow="visible"/>
				</clipPath>
				<g id="g9973" clip-path="url(#SVGID_2_)">
					<g id="g9975" transform="translate(4946.6187,152.9518)">
						<path id="path9977" inkscape:connector-curvature="0" d="M0-0.002c9.146,0,16.861-3.139,23.14-9.419
							c6.315-6.317,9.477-14.034,9.477-23.14c0-9.149-3.1-16.767-9.302-22.851C16.724-61.884,8.952-65.119,0-65.119
							c-8.799,0-16.434,3.199-22.906,9.592c-6.395,6.397-9.592,14.05-9.592,22.966s3.199,16.629,9.592,23.14
							C-16.629-3.14-8.991-0.002,0-0.002 M0.115-5.873c-7.402,0-13.662-2.599-18.778-7.793c-5.313-5.429-7.965-11.725-7.965-18.895
							c0-7.21,2.634-13.452,7.906-18.723c5.271-5.271,11.55-7.905,18.837-7.905c7.248,0,13.566,2.652,18.958,7.963
							c5.113,4.923,7.672,11.145,7.672,18.665c0,7.402-2.599,13.7-7.79,18.895C13.762-8.471,7.48-5.873,0.115-5.873 M8.836-24.481
							v-13.314h-3.72v-15.813H-5.001v15.813h-3.722v13.314c0,0.583,0.203,1.076,0.613,1.483c0.405,0.41,0.9,0.613,1.483,0.613H6.743
							c0.543,0,1.026-0.203,1.454-0.613C8.623-23.405,8.836-23.898,8.836-24.481 M-4.478-16.108c0,3.062,1.513,4.595,4.535,4.595
							c3.025,0,4.536-1.533,4.536-4.595c0-3.022-1.511-4.535-4.536-4.535C-2.966-20.643-4.478-19.13-4.478-16.108"/>
					</g>
					<g id="g9979" transform="translate(4896.9019,80.7901)">
						<path id="path9981" inkscape:connector-curvature="0" fill="none" stroke="#000000" stroke-width="0.592" d="M-0.001-0.001
							h-31.996 M10.666-10.666v-31.996 M-0.001,78.207h-31.996 M10.666,88.872v31.996 M99.541,78.207h31.992 M88.874,88.872v31.996
							 M99.541-0.001h31.992 M88.874-10.666v-31.996"/>
					</g>
				</g>
			</g>
		</g>
	</g>
	<g id="g9983" transform="matrix(0.7026078,0,0,-0.7026078,-2047.1135,1073.3221)">
		<g>
			<g>
				<defs>
					<rect id="SVGID_3_" x="4586.875" y="106.456" width="26.875" height="26.875"/>
				</defs>
				<clipPath id="SVGID_4_">
					<use xlink:href="#SVGID_3_"  overflow="visible"/>
				</clipPath>
				<g id="g9985" clip-path="url(#SVGID_4_)">
					<g id="g9987" transform="translate(4600.2598,152.9518)">
						<path id="path9989" inkscape:connector-curvature="0" d="M0-0.002c9.108,0,16.861-3.179,23.255-9.536
							c3.064-3.062,5.389-6.56,6.979-10.495c1.588-3.932,2.386-8.11,2.386-12.528c0-4.458-0.786-8.636-2.356-12.531
							c-1.569-3.895-3.885-7.333-6.95-10.32c-3.179-3.139-6.782-5.543-10.812-7.208C8.469-64.288,4.304-65.121,0-65.121
							c-4.301,0-8.421,0.823-12.354,2.472c-3.935,1.646-7.462,4.028-10.582,7.15c-3.12,3.119-5.494,6.637-7.122,10.552
							c-1.629,3.915-2.442,8.043-2.442,12.384c0,4.301,0.823,8.44,2.472,12.411c1.644,3.975,4.038,7.53,7.177,10.672
							C-16.65-3.161-9.031-0.002,0-0.002 M0.118-5.873c-7.443,0-13.702-2.599-18.782-7.793c-2.559-2.599-4.525-5.514-5.901-8.749
							c-1.374-3.239-2.064-6.62-2.064-10.145c0-3.488,0.69-6.85,2.064-10.089c1.378-3.235,3.343-6.124,5.901-8.663
							c2.559-2.539,5.444-4.475,8.663-5.814c3.215-1.336,6.587-2.006,10.119-2.006c3.487,0,6.869,0.68,10.144,2.036
							c3.274,1.356,6.231,3.315,8.866,5.871c5.081,4.961,7.618,11.185,7.618,18.665c0,3.605-0.661,7.015-1.977,10.232
							c-1.316,3.219-3.235,6.084-5.756,8.606C13.778-8.491,7.48-5.873,0.118-5.873 M-0.29-27.153l-4.358-2.269
							c-0.468,0.97-1.041,1.649-1.718,2.036c-0.68,0.386-1.309,0.58-1.887,0.58c-2.91,0-4.363-1.919-4.363-5.754
							c0-1.746,0.367-3.142,1.103-4.188c0.736-1.046,1.824-1.569,3.26-1.569c1.897,0,3.234,0.931,4.01,2.792l4.013-2.036
							c-0.855-1.589-2.037-2.839-3.55-3.748c-1.511-0.913-3.177-1.368-4.998-1.368c-2.909,0-5.254,0.893-7.035,2.674
							c-1.784,1.784-2.677,4.266-2.677,7.443c0,3.102,0.903,5.561,2.705,7.383c1.801,1.823,4.076,2.732,6.829,2.732
							C-4.921-22.445-2.034-24.014-0.29-27.153 M18.486-27.153l-4.3-2.269c-0.463,0.97-1.038,1.649-1.716,2.036
							c-0.678,0.386-1.326,0.58-1.947,0.58c-2.909,0-4.36-1.919-4.36-5.754c0-1.746,0.368-3.142,1.106-4.188
							c0.733-1.046,1.818-1.569,3.254-1.569c1.899,0,3.235,0.931,4.012,2.792l4.07-2.036C17.712-39.151,16.512-40.4,15-41.31
							c-1.509-0.913-3.16-1.368-4.941-1.368c-2.945,0-5.301,0.893-7.063,2.674c-1.764,1.783-2.645,4.265-2.645,7.443
							c0,3.102,0.903,5.561,2.702,7.382c1.803,1.824,4.081,2.732,6.834,2.732C13.917-22.445,16.784-24.014,18.486-27.153"/>
					</g>
					<g id="g9991" transform="translate(4550.543,80.7901)">
						<path id="path9993" inkscape:connector-curvature="0" fill="none" stroke="#000000" stroke-width="0.592" d="M0-0.001h-31.996
							 M10.666-10.666v-31.996 M0,78.207h-31.996 M10.666,88.872v31.996 M99.541,78.207h31.996 M88.875,88.872v31.996 M99.541-0.001
							h31.996 M88.875-10.666v-31.996"/>
					</g>
				</g>
			</g>
		</g>
	</g>
	<g id="g9995" transform="matrix(0.7026078,0,0,-0.7026078,-2047.1135,1073.3221)">
		<g>
			<g>
				<defs>
					<rect id="SVGID_5_" x="4755.485" y="106.456" width="26.877" height="26.875"/>
				</defs>
				<clipPath id="SVGID_6_">
					<use xlink:href="#SVGID_5_"  overflow="visible"/>
				</clipPath>
				<g id="g9997" clip-path="url(#SVGID_6_)">
					<g id="g9999" transform="translate(4768.8687,152.8934)">
						<path id="path10001" inkscape:connector-curvature="0" d="M0-0.004c9.106,0,16.819-3.16,23.14-9.477
							c6.317-6.276,9.477-13.974,9.477-23.083c0-9.108-3.1-16.741-9.302-22.905C16.764-61.902,8.993-65.118,0-65.118
							c-8.799,0-16.436,3.194-22.906,9.591c-6.397,6.395-9.596,14.05-9.596,22.963c0,8.876,3.199,16.574,9.596,23.083
							C-16.589-3.162-8.954-0.004,0-0.004 M0.117-5.874c-7.407,0-13.664-2.615-18.782-7.85c-5.311-5.388-7.965-11.665-7.965-18.838
							c0-7.247,2.634-13.487,7.908-18.718c5.269-5.274,11.551-7.91,18.838-7.91c7.245,0,13.566,2.655,18.951,7.966
							c5.118,4.961,7.675,11.182,7.675,18.662c0,7.443-2.597,13.724-7.79,18.838C13.799-8.49,7.522-5.874,0.117-5.874
							 M-14.42-27.968c0.62,3.992,2.229,7.082,4.828,9.271c2.595,2.189,5.754,3.285,9.474,3.285c5.119,0,9.189-1.646,12.211-4.941
							c3.024-3.295,4.535-7.52,4.535-12.674c0-4.999-1.569-9.158-4.708-12.471c-3.139-3.314-7.21-4.969-12.208-4.969
							c-3.685,0-6.865,1.103-9.537,3.312c-2.674,2.209-4.281,5.351-4.826,9.419h8.2c0.193-3.953,2.577-5.927,7.15-5.927
							c2.287,0,4.128,0.986,5.524,2.965c1.394,1.976,2.092,4.61,2.092,7.905c0,3.448-0.64,6.074-1.916,7.876
							c-1.283,1.803-3.124,2.705-5.526,2.705c-4.341,0-6.782-1.919-7.325-5.757h2.381l-6.454-6.454l-6.454,6.454h2.559V-27.968z"/>
					</g>
					<g id="g10003" transform="translate(4719.1519,80.7901)">
						<path id="path10005" inkscape:connector-curvature="0" fill="none" stroke="#000000" stroke-width="0.592" d="M0.001-0.001
							h-31.997 M10.663-10.666v-31.996 M0.001,78.207h-31.997 M10.663,88.872v31.996 M99.541,78.207h31.994 M88.876,88.872v31.996
							 M99.541-0.001h31.994 M88.876-10.666v-31.996"/>
					</g>
				</g>
			</g>
		</g>
	</g>
	<g id="g10007" transform="matrix(0.7026078,0,0,-0.7026078,-2047.1135,1073.3221)">
		<g>
			<g>
				<defs>
					<rect id="SVGID_7_" x="4839.788" y="106.455" width="26.875" height="26.875"/>
				</defs>
				<clipPath id="SVGID_8_">
					<use xlink:href="#SVGID_7_"  overflow="visible"/>
				</clipPath>
				<g id="g10009" clip-path="url(#SVGID_8_)">
					<g id="g10011" transform="translate(4853.1729,152.8934)">
						<path id="path10013" inkscape:connector-curvature="0" d="M0.001-0.004c9.108,0,16.821-3.16,23.14-9.477
							c6.317-6.276,9.476-13.974,9.476-23.083c0-9.108-3.102-16.741-9.302-22.905c-6.55-6.434-14.324-9.649-23.313-9.649
							c-8.803,0-16.434,3.194-22.91,9.591c-6.394,6.395-9.591,14.05-9.591,22.963c0,8.876,3.199,16.574,9.591,23.083
							C-16.591-3.162-8.953-0.004,0.001-0.004 M0.114-5.874c-7.402,0-13.661-2.615-18.775-7.85
							c-5.314-5.388-7.965-11.665-7.965-18.838c0-7.247,2.634-13.487,7.903-18.718c5.271-5.274,11.55-7.91,18.837-7.91
							c7.248,0,13.567,2.655,18.956,7.966c5.118,4.961,7.677,11.182,7.677,18.662c0,7.443-2.6,13.724-7.793,18.838
							C13.797-8.49,7.518-5.874,0.114-5.874 M21.338-33.142l0.64-0.29v-9.186l-0.581-0.293l-7.906-3.372l-0.35-0.118l-0.406,0.118
							L-4.3-39.246l-0.583,0.233l-8.43-3.493l-8.316,3.605v8.375l7.795,3.254l-0.062,0.06v9.188l8.841,3.895l19.941-8.256v-8.08
							L21.338-33.142z M12.094-43.841v5.757h-0.058v0.233l-14.943,6.104v-5.931l14.943-6.164v0.06L12.094-43.841z M13.084-36.281
							l5.231,2.149l-4.824,2.036l-5.118-2.152L13.084-36.281z M19.944-41.282v5.641l-5.814-2.442v-5.697L19.944-41.282z"/>
					</g>
					<g id="g10015" transform="translate(4803.4561,80.7901)">
						<path id="path10017" inkscape:connector-curvature="0" fill="none" stroke="#000000" stroke-width="0.592" d="M0.002-0.001
							h-31.997 M10.664-10.666v-31.996 M0.002,78.207h-31.997 M10.664,88.872v31.996 M99.539,78.207h31.996 M88.874,88.872v31.996
							 M99.539-0.001h31.996 M88.874-10.666v-31.996"/>
					</g>
				</g>
			</g>
		</g>
	</g>
	<g id="g10019" transform="matrix(0.7026078,0,0,-0.7026078,-2047.1135,1073.3221)">
		<g>
			<g>
				<defs>
					<rect id="SVGID_9_" x="4671.182" y="106.455" width="26.875" height="26.875"/>
				</defs>
				<clipPath id="SVGID_10_">
					<use xlink:href="#SVGID_9_"  overflow="visible"/>
				</clipPath>
				<g id="g10021" clip-path="url(#SVGID_10_)">
					<g id="g10023" transform="translate(4684.5645,152.8934)">
						<path id="path10025" inkscape:connector-curvature="0" d="M-0.001-0.004c9.109,0,16.821-3.16,23.14-9.477
							c6.317-6.276,9.479-13.974,9.479-23.083c0-9.108-3.104-16.741-9.301-22.905C16.766-61.904,8.991-65.118,0-65.118
							c-8.799,0-16.436,3.194-22.908,9.591c-6.397,6.394-9.591,14.05-9.591,22.963c0,8.876,3.194,16.574,9.591,23.083
							C-16.591-3.162-8.954-0.004-0.001-0.004 M0.114-5.874c-7.402,0-13.662-2.615-18.778-7.85
							c-5.313-5.388-7.965-11.665-7.965-18.838c0-7.247,2.634-13.487,7.906-18.718c5.271-5.274,11.551-7.91,18.837-7.91
							c7.25,0,13.569,2.655,18.958,7.966c5.118,4.961,7.672,11.182,7.672,18.662c0,7.443-2.595,13.724-7.791,18.838
							C13.797-8.49,7.519-5.874,0.114-5.874 M13.373-23.26c0.503,0,0.93-0.173,1.278-0.52c0.35-0.352,0.526-0.776,0.526-1.284
							v-23.953c0-0.503-0.178-0.93-0.526-1.279c-0.348-0.347-0.775-0.523-1.278-0.523h-17.73c-0.508,0-0.931,0.178-1.283,0.523
							c-0.348,0.35-0.523,0.776-0.523,1.279v7.093h-7.09c-0.506,0-0.933,0.173-1.279,0.523c-0.35,0.35-0.526,0.776-0.526,1.279
							v23.953c0,0.466,0.158,0.863,0.466,1.193c0.31,0.33,0.7,0.533,1.163,0.61h0.178H4.477c0.503,0,0.93-0.173,1.279-0.523
							c0.35-0.35,0.521-0.776,0.521-1.279v-7.092H13.373z M-11.514-38.373h5.349v13.311c0,0.466,0.157,0.863,0.465,1.193
							c0.313,0.33,0.681,0.533,1.108,0.61h0.233h7.09v5.294h-14.245V-38.373z M11.628-26.805H-2.615v-20.407h14.244V-26.805z"/>
					</g>
					<g id="g10027" transform="translate(4634.8477,80.7901)">
						<path id="path10029" inkscape:connector-curvature="0" fill="none" stroke="#000000" stroke-width="0.592" d="M0-0.001
							h-31.994 M10.665-10.667v-31.996 M0,78.207h-31.994 M10.665,88.872v31.996 M99.54,78.207h31.996 M88.875,88.872v31.996
							 M99.54-0.001h31.996 M88.875-10.667v-31.996"/>
					</g>
				</g>
			</g>
		</g>
	</g>
</g>
<g id="text2993" transform="translate(-54.489215,-280.29548)" inkscape:export-ydpi="100.01622" inkscape:export-xdpi="100.01622" inkscape:export-filename="/Users/massimomenichinelli/Dropbox/openp2pdesign.org/2013/Cava dei Tirreni/toolkit/logo.png">
	<path id="path2998" inkscape:connector-curvature="0" d="M102.586,358.349c-1.681,0-3.265-0.312-4.752-0.936
		c-1.44-0.624-2.713-1.488-3.816-2.592c-1.104-1.104-1.968-2.376-2.592-3.816c-0.624-1.488-0.937-3.072-0.937-4.752v-24.48
		c0-1.68,0.312-3.24,0.937-4.68c0.624-1.488,1.487-2.784,2.592-3.888c1.104-1.104,2.376-1.968,3.816-2.592
		c1.487-0.624,3.071-0.936,4.752-0.936c1.68,0,3.239,0.312,4.68,0.936c1.488,0.624,2.784,1.488,3.888,2.592s1.968,2.4,2.592,3.888
		c0.624,1.44,0.937,3,0.937,4.68v24.48c0,1.68-0.312,3.264-0.937,4.752c-0.624,1.44-1.487,2.712-2.592,3.816
		c-1.104,1.104-2.399,1.968-3.888,2.592C105.825,358.037,104.265,358.349,102.586,358.349 M102.586,316.588
		c-1.44,0-2.664,0.504-3.673,1.512c-1.008,1.008-1.512,2.232-1.512,3.672v24.48c0,1.44,0.504,2.664,1.512,3.672
		c1.009,1.008,2.232,1.512,3.673,1.512c1.439,0,2.663-0.504,3.672-1.512c1.008-1.008,1.512-2.232,1.512-3.672v-24.48
		c0-1.44-0.504-2.664-1.512-3.672C105.249,317.093,104.025,316.588,102.586,316.588"/>
	<path id="path3000" inkscape:connector-curvature="0" d="M124.622,372.532c-0.912,0-1.68-0.312-2.304-0.936
		s-0.937-1.392-0.937-2.304V326.38c0-0.912,0.312-1.68,0.937-2.304s1.392-0.936,2.304-0.936h7.2c1.439,0,2.784,0.288,4.031,0.864
		c1.297,0.528,2.4,1.272,3.312,2.232c0.96,0.912,1.704,2.016,2.232,3.312c0.575,1.248,0.863,2.592,0.863,4.032v13.824
		c0,1.44-0.288,2.808-0.863,4.104c-0.528,1.248-1.272,2.352-2.232,3.312c-0.912,0.912-2.016,1.632-3.312,2.16
		c-1.247,0.576-2.592,0.864-4.031,0.864h-3.96v11.448c0,0.912-0.312,1.68-0.937,2.304S125.534,372.532,124.622,372.532
		 M135.782,333.581c0-1.104-0.384-2.04-1.152-2.808s-1.704-1.152-2.808-1.152h-3.96v21.744h3.96c1.104,0,2.04-0.384,2.808-1.152
		c0.769-0.768,1.152-1.704,1.152-2.808V333.581"/>
	<path id="path3002" inkscape:connector-curvature="0" d="M154.982,357.34c-2.016-0.816-3.6-2.088-4.752-3.816
		c-1.152-1.729-1.729-3.672-1.729-5.832v-14.4c0-1.44,0.265-2.784,0.792-4.032c0.576-1.296,1.32-2.4,2.232-3.313
		c0.96-0.96,2.064-1.704,3.312-2.232c1.297-0.576,2.664-0.864,4.104-0.864s2.784,0.288,4.032,0.864
		c1.296,0.528,2.399,1.272,3.312,2.232c0.96,0.912,1.704,2.016,2.232,3.313c0.576,1.248,0.864,2.592,0.864,4.032v7.2
		c0,0.912-0.312,1.68-0.937,2.304c-0.624,0.624-1.392,0.937-2.304,0.937h-11.16v3.96c0,0.816,0.216,1.56,0.647,2.232
		c0.433,0.624,1.032,1.104,1.801,1.44c0.768,0.288,1.536,0.36,2.304,0.216s1.44-0.504,2.016-1.08
		c0.624-0.672,1.368-1.008,2.232-1.008c0.912,0,1.704,0.336,2.376,1.008c0.624,0.672,0.936,1.44,0.936,2.304
		c0,0.864-0.312,1.632-0.936,2.304c-1.536,1.488-3.336,2.424-5.4,2.808C158.942,358.349,156.95,358.156,154.982,357.34
		 M158.942,329.333c-1.104,0-2.04,0.384-2.808,1.152c-0.769,0.768-1.152,1.704-1.152,2.808v3.96h7.92v-3.96
		c0-1.104-0.384-2.04-1.152-2.808S160.046,329.333,158.942,329.333"/>
	<path id="path3004" inkscape:connector-curvature="0" d="M179.044,358.132c-0.912,0-1.68-0.312-2.304-0.936
		s-0.937-1.392-0.937-2.304V326.38c0-0.912,0.312-1.68,0.937-2.304s1.392-0.936,2.304-0.936h7.2c1.439,0,2.784,0.288,4.031,0.864
		c1.297,0.528,2.4,1.272,3.312,2.232c0.96,0.912,1.704,2.016,2.232,3.312c0.575,1.248,0.863,2.592,0.863,4.032v21.312
		c0,0.912-0.336,1.68-1.008,2.304c-0.624,0.624-1.368,0.937-2.231,0.937c-0.912,0-1.681-0.313-2.305-0.937s-0.936-1.392-0.936-2.304
		v-21.312c0-1.104-0.384-2.04-1.152-2.808c-0.768-0.768-1.704-1.152-2.808-1.152h-3.96v25.272c0,0.912-0.336,1.68-1.009,2.304
		C180.652,357.82,179.908,358.132,179.044,358.132"/>
	<path id="path3006" inkscape:connector-curvature="0" d="M221.091,358.349c-0.96,0-1.776-0.336-2.448-1.008
		c-0.672-0.672-1.008-1.488-1.008-2.448v-41.76c0-0.816,0.24-1.536,0.72-2.16s1.128-1.032,1.944-1.224
		c0.815-0.192,1.584-0.096,2.304,0.288c0.72,0.336,1.248,0.888,1.584,1.656c0.96,2.112,1.944,4.2,2.952,6.264
		c0.816,1.824,1.729,3.768,2.736,5.832c1.008,2.016,1.92,3.912,2.735,5.688c0.816-1.776,1.704-3.672,2.664-5.688
		c1.008-2.064,1.92-4.008,2.736-5.832c0.96-2.064,1.944-4.152,2.952-6.264c0.384-0.768,0.912-1.32,1.584-1.656
		c0.72-0.384,1.488-0.48,2.304-0.288s1.464,0.6,1.944,1.224c0.527,0.624,0.792,1.344,0.792,2.16v41.76
		c0,0.96-0.336,1.776-1.008,2.448c-0.673,0.672-1.488,1.008-2.448,1.008s-1.776-0.336-2.448-1.008
		c-0.672-0.672-1.008-1.488-1.008-2.448v-26.28c-0.624,1.296-1.224,2.568-1.8,3.816s-1.104,2.352-1.584,3.312
		c-0.528,1.152-1.057,2.256-1.584,3.313c-0.288,0.624-0.721,1.128-1.296,1.512c-0.528,0.336-1.128,0.504-1.801,0.504
		c-1.487,0-2.544-0.672-3.168-2.016c-0.527-1.056-1.056-2.16-1.584-3.313c-0.479-0.96-1.008-2.063-1.584-3.312
		c-0.576-1.248-1.151-2.52-1.728-3.816v26.28c0,0.96-0.336,1.776-1.008,2.448C222.867,358.013,222.051,358.349,221.091,358.349"/>
	<path id="path3008" inkscape:connector-curvature="0" d="M260.873,357.34c-2.016-0.816-3.6-2.088-4.752-3.816
		c-1.152-1.729-1.729-3.672-1.729-5.832v-14.4c0-1.44,0.265-2.784,0.792-4.032c0.576-1.296,1.32-2.4,2.232-3.313
		c0.96-0.96,2.064-1.704,3.312-2.232c1.296-0.576,2.663-0.864,4.104-0.864s2.784,0.288,4.032,0.864
		c1.296,0.528,2.399,1.272,3.312,2.232c0.96,0.912,1.704,2.016,2.232,3.313c0.576,1.248,0.864,2.592,0.864,4.032v7.2
		c0,0.912-0.312,1.68-0.937,2.304c-0.624,0.624-1.392,0.937-2.304,0.937h-11.16v3.96c0,0.816,0.216,1.56,0.648,2.232
		c0.432,0.624,1.031,1.104,1.8,1.44c0.768,0.288,1.536,0.36,2.304,0.216s1.44-0.504,2.016-1.08c0.624-0.672,1.368-1.008,2.232-1.008
		c0.912,0,1.704,0.336,2.376,1.008c0.624,0.672,0.936,1.44,0.936,2.304c0,0.864-0.312,1.632-0.936,2.304
		c-1.536,1.488-3.336,2.424-5.4,2.808C264.833,358.349,262.841,358.156,260.873,357.34 M264.833,329.333
		c-1.104,0-2.04,0.384-2.808,1.152c-0.769,0.768-1.152,1.704-1.152,2.808v3.96h7.92v-3.96c0-1.104-0.384-2.04-1.152-2.808
		S265.936,329.333,264.833,329.333"/>
	<path id="path3010" inkscape:connector-curvature="0" d="M281.766,329.621c-0.912,0-1.68-0.312-2.304-0.936
		s-0.937-1.392-0.937-2.304c0-0.912,0.312-1.68,0.937-2.304s1.392-0.936,2.304-0.936h2.52v-11.448c0-0.912,0.312-1.68,0.937-2.304
		s1.392-0.936,2.304-0.936c0.912,0,1.68,0.312,2.304,0.936s0.937,1.392,0.937,2.304v11.448h3.96c0.912,0,1.68,0.312,2.304,0.936
		c0.624,0.624,0.937,1.392,0.937,2.304c0,0.912-0.312,1.68-0.937,2.304s-1.392,0.936-2.304,0.936h-3.96v18.072
		c0,1.104,0.384,2.04,1.152,2.808s1.703,1.152,2.808,1.152c0.912,0,1.68,0.312,2.304,0.936s0.937,1.392,0.937,2.304
		s-0.312,1.68-0.937,2.304s-1.392,0.936-2.304,0.936c-1.44,0-2.808-0.288-4.104-0.864c-1.248-0.528-2.352-1.248-3.312-2.16
		c-0.912-0.96-1.656-2.064-2.232-3.312c-0.527-1.296-0.792-2.664-0.792-4.104v-18.072H281.766L281.766,329.621"/>
	<path id="path3012" inkscape:connector-curvature="0" d="M314.59,336.964v-3.816c0-0.768-0.217-1.464-0.648-2.088
		c-0.432-0.672-1.008-1.152-1.728-1.44c-0.721-0.288-1.465-0.36-2.232-0.216c-0.767,0.144-1.416,0.504-1.944,1.08
		c-0.624,0.624-1.392,0.936-2.304,0.936c-0.864,0-1.607-0.312-2.231-0.936c-0.673-0.672-1.009-1.44-1.009-2.304
		c0-0.864,0.336-1.632,1.009-2.304c1.487-1.488,3.239-2.424,5.256-2.808c2.016-0.432,3.983-0.24,5.903,0.576
		c1.969,0.816,3.528,2.088,4.681,3.816c1.151,1.68,1.728,3.576,1.728,5.688v21.456c0,0.912-0.312,1.68-0.936,2.304
		s-1.393,0.936-2.305,0.936h-7.199c-1.44,0-2.809-0.288-4.104-0.864c-1.248-0.528-2.352-1.248-3.312-2.16
		c-0.912-0.96-1.656-2.064-2.232-3.312c-0.528-1.296-0.792-2.664-0.792-4.104s0.264-2.784,0.792-4.032
		c0.576-1.296,1.32-2.4,2.232-3.312c0.96-0.96,2.063-1.704,3.312-2.232c1.296-0.576,2.664-0.864,4.104-0.864H314.59 M310.63,343.444
		c-1.104,0-2.04,0.384-2.809,1.152c-0.768,0.768-1.151,1.704-1.151,2.808c0,1.104,0.384,2.04,1.151,2.808
		c0.769,0.768,1.704,1.152,2.809,1.152h3.96v-7.92H310.63"/>
	<path id="path3014" inkscape:connector-curvature="0" d="M340.262,309.964c1.681,0,3.24,0.312,4.681,0.937
		c1.487,0.624,2.783,1.488,3.888,2.592c1.104,1.104,1.968,2.4,2.592,3.888c0.624,1.44,0.938,3,0.938,4.68v23.904
		c0,1.68-0.313,3.264-0.938,4.752c-0.624,1.439-1.488,2.712-2.592,3.816s-2.4,1.968-3.888,2.592c-1.44,0.624-3,0.936-4.681,0.936
		h-8.64c-0.96,0-1.776-0.336-2.448-1.008c-0.672-0.672-1.008-1.488-1.008-2.448V313.42c0-0.96,0.336-1.775,1.008-2.448
		c0.672-0.672,1.488-1.008,2.448-1.008H340.262 M345.446,322.061c0-1.44-0.504-2.664-1.513-3.672
		c-1.008-1.008-2.231-1.512-3.672-1.512h-5.184v34.272h5.184c1.44,0,2.664-0.504,3.672-1.512c1.009-1.008,1.513-2.232,1.513-3.672
		V322.061"/>
	<path id="path3016" inkscape:connector-curvature="0" d="M364.795,357.34c-2.017-0.816-3.601-2.088-4.752-3.816
		c-1.152-1.729-1.729-3.672-1.729-5.832v-14.4c0-1.44,0.265-2.784,0.792-4.032c0.575-1.296,1.319-2.4,2.231-3.313
		c0.96-0.96,2.063-1.704,3.313-2.232c1.296-0.576,2.664-0.864,4.104-0.864s2.783,0.288,4.031,0.864
		c1.297,0.528,2.399,1.272,3.312,2.232c0.96,0.912,1.704,2.016,2.232,3.313c0.575,1.248,0.863,2.592,0.863,4.032v7.2
		c0,0.912-0.313,1.68-0.937,2.304s-1.393,0.937-2.304,0.937h-11.16v3.96c0,0.816,0.216,1.56,0.647,2.232
		c0.433,0.624,1.031,1.104,1.8,1.44c0.769,0.288,1.536,0.36,2.305,0.216s1.439-0.504,2.016-1.08
		c0.624-0.672,1.368-1.008,2.232-1.008c0.912,0,1.704,0.336,2.376,1.008c0.624,0.672,0.937,1.44,0.937,2.304
		c0,0.864-0.313,1.632-0.937,2.304c-1.536,1.488-3.336,2.424-5.4,2.808C368.755,358.349,366.762,358.156,364.795,357.34
		 M368.755,329.333c-1.104,0-2.04,0.384-2.809,1.152s-1.151,1.704-1.151,2.808v3.96h7.92v-3.96c0-1.104-0.384-2.04-1.151-2.808
		C370.795,329.716,369.858,329.333,368.755,329.333"/>
	<path id="path3018" inkscape:connector-curvature="0" d="M395.408,350.716c0.864-0.72,1.248-1.656,1.151-2.808
		c-0.097-1.2-0.575-2.088-1.439-2.664l-6.769-4.68c-1.199-0.864-2.159-1.92-2.881-3.168c-0.72-1.296-1.128-2.688-1.224-4.176
		c-0.096-1.488,0.12-2.904,0.648-4.248c0.574-1.392,1.415-2.592,2.52-3.6c1.104-0.96,2.353-1.656,3.744-2.088
		c1.391-0.432,2.832-0.528,4.32-0.288c1.438,0.24,2.76,0.768,3.96,1.584c1.198,0.816,2.184,1.872,2.95,3.168
		c0.434,0.768,0.528,1.584,0.288,2.448c-0.19,0.864-0.694,1.512-1.512,1.944c-0.768,0.432-1.584,0.552-2.448,0.36
		c-0.863-0.24-1.512-0.744-1.942-1.512c-0.528-0.912-1.296-1.44-2.306-1.584c-0.96-0.192-1.848,0.072-2.664,0.792
		c-0.814,0.672-1.176,1.536-1.079,2.592c0.097,1.008,0.553,1.824,1.367,2.448l6.696,4.68c1.248,0.912,2.232,2.016,2.952,3.312
		c0.768,1.296,1.2,2.712,1.296,4.248s-0.145,3-0.72,4.392c-0.528,1.392-1.368,2.616-2.521,3.672
		c-1.104,1.008-2.376,1.728-3.814,2.16c-1.44,0.432-2.93,0.528-4.465,0.288c-1.535-0.24-2.929-0.768-4.177-1.584
		c-1.199-0.864-2.184-1.968-2.951-3.312c-0.433-0.768-0.553-1.584-0.359-2.448c0.24-0.864,0.744-1.512,1.512-1.944
		c0.816-0.432,1.656-0.528,2.521-0.288c0.862,0.192,1.512,0.672,1.942,1.44c0.528,1.008,1.368,1.584,2.521,1.728
		C393.584,351.772,394.544,351.484,395.408,350.716"/>
	<path id="path3020" inkscape:connector-curvature="0" d="M412.481,319.252c-1.104,0-2.04-0.384-2.81-1.152
		c-0.768-0.768-1.15-1.704-1.15-2.808s0.384-2.04,1.15-2.808c0.77-0.768,1.704-1.152,2.81-1.152c1.104,0,2.04,0.384,2.808,1.152
		s1.152,1.704,1.152,2.808s-0.385,2.04-1.152,2.808S413.585,319.252,412.481,319.252 M415.72,354.893
		c0,0.912-0.312,1.68-0.936,2.304s-1.393,0.936-2.304,0.936c-0.912,0-1.682-0.312-2.306-0.936s-0.936-1.392-0.936-2.304v-28.8
		c0-0.912,0.312-1.68,0.936-2.304s1.394-0.936,2.306-0.936c0.911,0,1.68,0.312,2.304,0.936s0.936,1.392,0.936,2.304V354.893"/>
	<path id="path3022" inkscape:connector-curvature="0" d="M433.161,357.845c-1.44,0-2.809-0.288-4.104-0.864
		c-1.248-0.528-2.352-1.248-3.312-2.16c-0.912-0.96-1.656-2.064-2.232-3.312c-0.527-1.296-0.792-2.664-0.792-4.104v-13.824
		c0-1.44,0.266-2.784,0.792-4.032c0.576-1.296,1.32-2.4,2.232-3.312c0.96-0.96,2.063-1.704,3.312-2.232
		c1.296-0.576,2.664-0.864,4.104-0.864h7.2c0.911,0,1.68,0.312,2.304,0.936c0.624,0.624,0.936,1.392,0.936,2.304v35.712
		c0,2.16-0.575,4.104-1.728,5.832c-1.152,1.729-2.712,3-4.681,3.816c-2.017,0.816-4.057,1.008-6.119,0.576
		c-2.018-0.384-3.77-1.32-5.257-2.808c-0.672-0.672-1.009-1.44-1.009-2.304c0-0.864,0.337-1.632,1.009-2.304
		c0.624-0.672,1.368-1.008,2.231-1.008c0.912,0,1.681,0.336,2.305,1.008c0.575,0.576,1.247,0.936,2.017,1.08
		c0.814,0.144,1.584,0.072,2.304-0.216c0.769-0.336,1.368-0.84,1.8-1.512c0.434-0.624,0.648-1.344,0.648-2.16v-4.248H433.161
		 M433.161,329.621c-1.104,0-2.04,0.384-2.809,1.152s-1.151,1.704-1.151,2.808v13.824c0,1.104,0.384,2.04,1.151,2.808
		c0.769,0.768,1.703,1.152,2.809,1.152h3.96v-21.744H433.161"/>
	<path id="path3024" inkscape:connector-curvature="0" d="M454.387,358.132c-0.912,0-1.681-0.312-2.305-0.936
		s-0.936-1.392-0.936-2.304V326.38c0-0.912,0.312-1.68,0.936-2.304s1.393-0.936,2.305-0.936h7.199c1.44,0,2.784,0.288,4.032,0.864
		c1.296,0.528,2.399,1.272,3.312,2.232c0.96,0.912,1.704,2.016,2.231,3.312c0.576,1.248,0.864,2.592,0.864,4.032v21.312
		c0,0.912-0.336,1.68-1.009,2.304c-0.623,0.624-1.367,0.937-2.231,0.937c-0.912,0-1.68-0.313-2.304-0.937s-0.937-1.392-0.937-2.304
		v-21.312c0-1.104-0.385-2.04-1.151-2.808c-0.77-0.768-1.704-1.152-2.81-1.152h-3.96v25.272c0,0.912-0.336,1.68-1.008,2.304
		C455.995,357.82,455.251,358.132,454.387,358.132"/>
</g>
<text transform="matrix(1 0 0 1 494.0234 77.9536)" font-family="'ArialMT'" font-size="40">System Map</text>
<text transform="matrix(1 0 0 1 425.1973 77.9536)" font-family="'ArialMT'" font-size="20">0.1</text>
<rect id="rect25259" x="35.433" y="113.386" fill="#F6F6F6" stroke="#000000" stroke-width="1.7908" stroke-linejoin="round" width="1417.323" height="832.677"/>
<text transform="matrix(1 0 0 1 35.4336 1008.9291)" font-family="'ArialMT'" font-size="14">Designed by:</text>
<text transform="matrix(1 0 0 1 36.7637 973.4965)" font-family="'ArialMT'" font-size="14">Project:</text>
<text transform="matrix(1 0 0 1 407.481 973.4965)" font-family="'ArialMT'" font-size="14">Link:</text>
<text transform="matrix(1 0 0 1 406.6777 1008.9291)" font-family="'ArialMT'" font-size="14">Designed for:</text>
<path id="path25277" inkscape:connector-curvature="0" sodipodi:nodetypes="cc" fill="none" stroke="#CFCFCF" stroke-width="1.4127" stroke-dasharray="1.4127,4.238" d="
	M90.619,973.497c246.404,0,299.145,0,299.145,0"/>
<path id="path25279" inkscape:connector-curvature="0" sodipodi:nodetypes="cc" fill="none" stroke="#CFCFCF" stroke-width="1.5027" stroke-dasharray="1.5027,4.508" d="
	M442.865,973.497c298.713,0,318.945,0,318.945,0"/>
<path id="path25281" inkscape:connector-curvature="0" sodipodi:nodetypes="cc" fill="none" stroke="#CFCFCF" stroke-width="1.3717" stroke-dasharray="1.3717,4.1152" d="
	M121.691,1008.929c232.333,0,268.072,0,268.072,0"/>
<path id="path25301" inkscape:connector-curvature="0" sodipodi:nodetypes="cc" fill="none" stroke="#CFCFCF" stroke-width="1.3717" stroke-dasharray="1.3717,4.1152" d="
	M495.239,1008.929c232.333,0,267.929,0,267.929,0"/>
<a id="a3150" xlink:href="http://www.mepss.nl/index.php?p=tool&amp;l4=W21"  xlink:title="http://www.mepss.nl/index.php?p=tool&amp;l4=W21">
	<text transform="matrix(1 0 0 1 15.3384 1088.2837)" font-family="'ArialMT'" font-size="16.0119">Original development of the System Map: http://www.mepss.nl/index.php?p=tool&amp;l4=W21</text>
</a>
<text transform="matrix(1 0 0 1 947.0381 247.7158)" font-family="'ArialMT'" font-size="14">Boundaries of the Activity</text>
<rect id="rect5744" x="48.536" y="826.682" opacity="0.5" fill="#FFFFFF" stroke="#797979" stroke-width="4.0422" stroke-dasharray="4.0422,8.0843" enable-background="new    " width="363.794" height="102.648"/>
<rect id="rect3155" x="425.197" y="255.119" fill="#FFFFFF" stroke="#000000" stroke-width="7.0866" width="761.81" height="442.913"/>
<path id="path4266" stroke="#000000" d="M136.487,893.14l-14.941,8.637v-17.273L136.487,893.14z"/>
<path id="path4112" inkscape:connector-curvature="0" stroke="#000000" d="M125.194,894.39"/>
<path id="path4932" inkscape:connector-curvature="0" opacity="0.5" stroke="#000000" enable-background="new    " d="
	M125.194,881.972"/>
<text transform="matrix(1 0 0 1 69.9551 864.4272)" font-family="'ArialMT'" font-size="11">Material flow</text>
<path id="path4203" stroke="#000000" d="M256.018,888.344l-5.011,5.013l5.011,5.01l5.011-5.01L256.018,888.344z"/>
<path id="path4934" inkscape:connector-curvature="0" stroke="#000000" d="M256.018,893.356"/>
<text transform="matrix(1 0 0 1 184.0586 864.4272)" font-family="'ArialMT'" font-size="11">Information flow</text>
<text transform="matrix(1 0 0 1 320.2324 864.4272)" font-family="'ArialMT'" font-size="11">Financial flow</text>
<g id="layer2" inkscape:label="Editable text" inkscape:groupmode="layer">
	<text transform="matrix(1 0 0 1 119.6709 1008.9301)" font-family="'ArialMT'" font-size="12">Oona Colliander, Justina Vengraityté, Theresa Berg</text>
	<text transform="matrix(1 0 0 1 88.583 973.4965)" font-family="'ArialMT'" font-size="14">Open Source test for Fashion Institute Finland</text>
	<text transform="matrix(1 0 0 1 440.8936 973.4965)" font-family="'ArialMT'" font-size="14">idbm.fi</text>
	<text transform="matrix(1 0 0 1 493.812 1008.9301)" font-family="'ArialMT'" font-size="14">Fashion Institute Finland</text>
</g>
<path fill="#CD3594" d="M851.119,440.093c0,7.555-6.125,13.679-13.68,13.679h-37.521c-7.553,0-13.677-6.124-13.677-13.679l0,0
	c0-7.556,6.124-13.68,13.677-13.68h37.521C844.994,426.413,851.119,432.537,851.119,440.093L851.119,440.093z"/>
<g>
	<text transform="matrix(1 0 0 1 811.0195 444.8959)" fill="#FFFFFF" font-family="'Calibri-Bold'" font-size="14.0698">FIF</text>
</g>
<g>
	<polygon fill="none" points="756.61,735.479 884.21,735.479 887.21,765.679 759.61,765.679 	"/>
	<text transform="matrix(1 0 0 1 789.585 747.0864)" font-family="'ArialMT'" font-size="14.0698">Production</text>
</g>
<g>
	<polygon fill="none" points="841.141,587.543 1111.986,587.543 1126.986,636.788 856.141,636.788 	"/>
	<text transform="matrix(1 0 0 1 954.0166 599.1498)" font-family="'Calibri'" font-size="14.0698">Foundations </text>
</g>
<g>
	<polygon fill="none" points="934.061,513.354 1053.066,513.354 1048.066,538.351 929.061,538.351 	"/>
	<text transform="matrix(1 0 0 1 967.7197 524.9594)" font-family="'Calibri'" font-size="14.0698">Media</text>
</g>
<g>
	<rect x="937.043" y="346.251" fill="none" width="109.041" height="23.919"/>
	<text transform="matrix(1 0 0 1 956.1123 357.8578)" font-family="'Calibri'" font-size="14.0698">Goverment</text>
</g>
<g>
	<rect x="912.417" y="442.67" fill="none" width="171.966" height="18.633"/>
	<text transform="matrix(1 0 0 1 947.0381 455.3432)" font-family="'Calibri'" font-size="10">delivery of network</text>
</g>
<path fill="none" stroke="#EE4384" stroke-width="2" stroke-dasharray="1,10" d="M752.241,429.179"/>
<path fill="none" stroke="#EE4384" stroke-width="2" stroke-dasharray="1,10" d="M566.989,429.179"/>
<g>
	<path fill="none" stroke="#231F20" stroke-width="2" stroke-dasharray="4,4" d="M513.25,468.6v148.271
		c0,5.501,4.5,10.001,10,10.001h435.475c5.501,0,10.001-4.118,10.001-9.152s0-9.151,0-9.151"/>
</g>
<g>
	<rect x="888.375" y="529.364" fill="none" width="214.175" height="15.631"/>
	<text transform="matrix(1 0 0 1 935.7695 535.892)" font-family="'Calibri'" font-size="10">delivery of compact news </text>
</g>
<g>
	<rect x="600.835" y="512.449" fill="none" width="119.008" height="24.999"/>
	<text transform="matrix(1 0 0 1 629.123 524.0561)" font-family="'Calibri'" font-size="14.0698">University</text>
</g>
<g>
	<rect x="572.874" y="528.22" fill="none" width="198.931" height="15.631"/>
	<text transform="matrix(1 0 0 1 616.0684 535.892)" font-family="'Calibri'" font-size="10">providing educatition</text>
</g>
<g>
	<rect x="582.701" y="445.158" fill="none" width="167.277" height="15.632"/>
	<text transform="matrix(1 0 0 1 609.1089 454.8295)" font-family="'Calibri'" font-size="10">providing information</text>
</g>
<g>
	<path fill="none" stroke="#231F20" stroke-dasharray="2,2" d="M525.947,465.663v42.624c0,5.501,4.5,10.001,10,10.001h80.283"/>
</g>
<path id="path4203_43_" stroke="#000000" d="M526.398,461.115l-2.651,2.649l2.651,2.652l2.649-2.652L526.398,461.115z"/>
<g>
	<g>
		<path fill="none" stroke="#231F20" stroke-dasharray="2,2" d="M785.379,463.835v45.625c0,5.501-4.5,10.001-10.001,10.001h-80.283"
			/>
	</g>
	<path id="path4203_41_" stroke="#000000" d="M782.278,461.936l2.649,2.652l2.65-2.652l-2.65-2.649L782.278,461.936z"/>
	<path id="path4203_40_" stroke="#000000" d="M693.172,518.734l2.65,2.651l2.649-2.651l-2.649-2.649L693.172,518.734z"/>
</g>
<g>
	<path fill="none" stroke="#231F20" stroke-dasharray="2,2" d="M855.611,461.835v47.625c0,5.5,4.5,10,10.001,10h85.281"/>
</g>
<path id="path4203_38_" stroke="#000000" d="M950.168,516.083l-2.65,2.649l2.65,2.651l2.65-2.651L950.168,516.083z"/>
<g>
	<path fill="none" stroke="#231F20" stroke-dasharray="2,2" d="M847.368,461.835v119.146c0,5.501,4.5,10.001,10.001,10.001h79.523"
		/>
</g>
<path id="path4203_36_" stroke="#000000" d="M936.168,587.606l-2.65,2.647l2.65,2.652l2.65-2.652L936.168,587.606z"/>
<g>
	<g>
		<path fill="none" stroke="#231F20" stroke-dasharray="2,2" d="M808.438,463.835v117.146c0,5.501-4.5,10.001-10,10.001h-88.524"/>
	</g>
	<path id="path4203_35_" stroke="#000000" d="M706.988,590.254l2.649,2.652l2.651-2.652l-2.651-2.647L706.988,590.254z"/>
</g>
<g>
	<line fill="none" stroke="#231F20" stroke-dasharray="2,2" x1="543.93" y1="441.881" x2="772.563" y2="441.881"/>
	<path id="path4203_34_" stroke="#000000" d="M540.049,441.153l2.65,2.651l2.65-2.651l-2.65-2.649L540.049,441.153z"/>
	<path id="path4203_33_" stroke="#000000" d="M772.648,441.573l2.649,2.651l2.65-2.651l-2.65-2.649L772.648,441.573z"/>
</g>
<g>
	<line fill="none" stroke="#231F20" stroke-dasharray="2,2" x1="859.19" y1="441.882" x2="1085.823" y2="441.882"/>
	<path id="path4203_32_" stroke="#000000" d="M855.31,441.153l2.65,2.651l2.65-2.651l-2.65-2.65L855.31,441.153z"/>
	<path id="path4203_31_" stroke="#000000" d="M1085.906,441.574l2.651,2.651l2.65-2.651l-2.65-2.649L1085.906,441.574z"/>
</g>
<g>
	<line fill="none" stroke="#231F20" stroke-dasharray="2,2" x1="823.41" y1="463.167" x2="823.41" y2="724.286"/>
	<path id="path4203_30_" stroke="#000000" d="M824.139,459.287l-2.649,2.649l2.649,2.651l2.65-2.651L824.139,459.287z"/>
	<path id="path4203_29_" stroke="#000000" d="M823.719,724.37l-2.649,2.65l2.649,2.649l2.65-2.649L823.719,724.37z"/>
</g>
<path id="path4203_28_" fill="none" stroke="#000000" d="M513.25,460.319l-4.142,4.14l4.142,4.143l4.141-4.143L513.25,460.319z"/>
<path id="path4203_27_" fill="none" stroke="#000000" d="M836.66,408.936l-4.143,4.14l4.143,4.143l4.142-4.143L836.66,408.936z"/>
<g>
	<path fill="none" stroke="#231F20" stroke-width="4" d="M865.317,742.206h254.436c5.501,0,10.001-4.5,10.001-10V470.298"/>
</g>
<path id="path4203_26_" stroke="#000000" d="M1122.436,472.654h15.285l-7.645-11.518L1122.436,472.654z"/>
<g>
	<g>
		<path fill="none" stroke="#231F20" stroke-dasharray="2,2" d="M480.22,466.491v265.74c0,5.502,4.5,10.002,10,10.002h290.675"/>
	</g>
	<path id="path4203_22_" stroke="#000000" d="M480.671,461.942l-2.649,2.649l2.649,2.651l2.651-2.651L480.671,461.942z"/>
	<path id="path4203_5_" stroke="#000000" d="M780.169,738.854l-2.65,2.649l2.65,2.652l2.65-2.652L780.169,738.854z"/>
</g>
<g>
	<path fill="none" stroke="#231F20" stroke-width="2" stroke-dasharray="4,4" d="M836.25,410.601v-47.727c0-5.5,4.5-10,10.001-10
		h98.476"/>
</g>
<g>
	<path fill="none" stroke="#231F20" stroke-width="2" stroke-dasharray="4,4" d="M1045.803,594.348h115.271
		c5.501,0,10.001-4.5,10.001-10V362.873c0-5.5-4.5-10-10.001-10h-127.051"/>
</g>
<g>
	<path fill="none" stroke="#231F20" stroke-width="2" stroke-dasharray="4,4" d="M835.368,463.835v125.146
		c0,5.502,4.5,10.002,10.001,10.002h92.523"/>
</g>
<path id="path4203_2_" fill="#FFFFFF" stroke="#000000" d="M835.66,459.287l-4.143,4.14l4.143,4.144l4.142-4.144L835.66,459.287z"/>
<path id="path4203_3_" fill="#FFFFFF" stroke="#000000" d="M1039.594,590.681l-4.142,4.142l4.142,4.143l4.143-4.143
	L1039.594,590.681z"/>
<g>
	<rect x="1220.354" y="513.376" fill="none" width="127.601" height="30.201"/>
	<text transform="matrix(1 0 0 1 1253.8633 524.9838)" font-family="'Calibri'" font-size="14.0698">End users</text>
</g>
<g>
	<polygon fill="none" points="1233.354,441.478 1354.954,441.478 1354.954,471.679 1227.354,471.679 	"/>
	<text transform="matrix(1 0 0 1 1266.5205 450.0864)" font-family="'Calibri'" font-size="14.0698">Retail</text>
</g>
<g>
	<line fill="none" stroke="#231F20" stroke-width="4" x1="1167.595" y1="445.206" x2="1251.594" y2="445.206"/>
</g>
<path id="path4203_4_" stroke="#000000" d="M1245.321,437.253v15.285l11.517-7.646L1245.321,437.253z"/>
<g>
	<line fill="none" stroke="#231F20" stroke-width="4" x1="1285.267" y1="460.681" x2="1285.267" y2="499.913"/>
</g>
<path id="path4203_6_" stroke="#000000" d="M1293.219,493.638h-15.284l7.645,11.518L1293.219,493.638z"/>
<g>
	<rect x="562.438" y="582.379" fill="none" width="195.804" height="49.244"/>
	<text transform="matrix(1 0 0 1 615.6948 593.9868)" font-family="'Calibri'" font-size="14.0698">Organisations</text>
</g>
<g>
	<rect x="539.01" y="597.185" fill="none" width="278.658" height="15.633"/>
	<text transform="matrix(1 0 0 1 572.0796 606.8578)" font-family="'Calibri'" font-size="10">providing expertice business knowledge</text>
</g>
<line fill="none" stroke="#231F20" stroke-dasharray="2,2" x1="1015.19" y1="520.858" x2="1243.823" y2="520.858"/>
<path id="path4203_7_" stroke="#000000" d="M1243.906,520.551l2.651,2.65l2.65-2.65l-2.65-2.649L1243.906,520.551z"/>
<path id="path4203_8_" stroke="#000000" d="M808.088,459.287l-2.65,2.647l2.65,2.652l2.65-2.652L808.088,459.287z"/>
<path id="path4203_9_" fill="none" stroke="#000000" d="M513.66,408.935l-4.143,4.141l4.143,4.143l4.142-4.143L513.66,408.935z"/>
<g>
	<path fill="none" stroke="#231F20" stroke-width="2" stroke-dasharray="4,4" d="M513.25,407.414V228.379c0-5.5,4.449-10,9.886-10
		h596.483c5.438,0,9.888,4.5,9.888,10v192.303"/>
</g>
<path id="path4203_10_" fill="none" stroke="#000000" d="M494.317,409.127l-4.143,4.141l4.143,4.143l4.142-4.143L494.317,409.127z"
	/>
<g>
	<path fill="none" stroke="#231F20" stroke-width="2" stroke-dasharray="4,4" d="M493.906,408.552V214.065c0-5.5,4.5-10,10-10
		h772.343c5.501,0,10.001,4.5,10.001,10v215.808"/>
</g>
<g>
	<path fill="none" stroke="#231F20" stroke-width="4" d="M473.906,415.558V193.066c0-5.5,4.5-10,10-10h845.343
		c5.501,0,10.001,4.5,10.001,10v318.807c0,5.5-2.173,10-4.828,10s-4.828,0-4.828,0"/>
</g>
<path id="path4203_11_" stroke="#000000" d="M1331.335,529.039v-15.284l-11.517,7.645L1331.335,529.039z"/>
<line fill="none" stroke="#231F20" stroke-width="2" stroke-dasharray="4,4" x1="540.466" y1="430.084" x2="769.1" y2="430.084"/>
<path id="path4203_12_" fill="none" stroke="#000000" d="M773.683,425.494l-4.142,4.141l4.142,4.144l4.143-4.144L773.683,425.494z"
	/>
<line fill="none" stroke="#231F20" stroke-width="2" stroke-dasharray="4,4" x1="320.706" y1="893.076" x2="379.203" y2="893.076"/>
<path id="path4203_15_" fill="none" stroke="#000000" d="M385.202,888.474l-4.143,4.142l4.143,4.143l4.142-4.143L385.202,888.474z"
	/>
<line fill="none" stroke="#231F20" stroke-dasharray="2,2" x1="185.713" y1="893.397" x2="250.091" y2="893.397"/>
<path id="path4203_16_" stroke="#000000" d="M250.176,893.088l2.65,2.652l2.65-2.652l-2.65-2.648L250.176,893.088z"/>
<g>
	<line fill="none" stroke="#231F20" stroke-width="4" x1="67.219" y1="894.198" x2="127.625" y2="894.198"/>
</g>
<path d="M-228.405,136.682"/>
<g>
	<g>
		<text transform="matrix(1 0 0 1 586.5845 424.0981)" font-family="'Calibri'" font-size="10">membership fee, optional fees</text>
	</g>
</g>
<text transform="matrix(1 0 0 1 465.1914 443.5746)" font-family="'Calibri-Bold'" font-size="14.0698">DESIGNER</text>
<path fill="none" stroke="#CD3594" stroke-width="3" d="M1162.517,442.093c0,7.555-6.125,13.679-13.68,13.679h-37.521
	c-7.553,0-13.677-6.124-13.677-13.679l0,0c0-7.556,6.124-13.68,13.677-13.68h37.521
	C1156.392,428.413,1162.517,434.537,1162.517,442.093L1162.517,442.093z"/>
<text transform="matrix(1 0 0 1 1110.8477 446.3149)" font-family="'Calibri-Bold'" font-size="14.0698">BYERS</text>
<path fill="none" stroke="#CD3594" stroke-width="3" d="M536.178,438.924c0,7.555-6.125,13.68-13.68,13.68h-54.521
	c-7.553,0-13.677-6.125-13.677-13.68l0,0c0-7.555,6.124-13.68,13.677-13.68h54.521C530.053,425.245,536.178,431.37,536.178,438.924
	L536.178,438.924z"/>
</svg>
