<?xml version="1.0" encoding="utf-8"?>
<!-- Generator: Adobe Illustrator 16.0.0, SVG Export Plug-In . SVG Version: 6.00 Build 0)  -->
<!DOCTYPE svg PUBLIC "-//W3C//DTD SVG 1.1 Tiny//EN" "http://www.w3.org/Graphics/SVG/1.1/DTD/svg11-tiny.dtd">
<svg version="1.1" baseProfile="tiny"
	 id="svg10067" inkscape:export-ydpi="200" inkscape:export-filename="../03.design_business.model.canvas.png" inkscape:version="0.48.2 r9819" inkscape:export-xdpi="200" sodipodi:docname="03.design_business.model.canvas.svg" xmlns:cc="http://creativecommons.org/ns#" xmlns:inkscape="http://www.inkscape.org/namespaces/inkscape" xmlns:sodipodi="http://sodipodi.sourceforge.net/DTD/sodipodi-0.dtd" xmlns:dc="http://purl.org/dc/elements/1.1/" xmlns:rdf="http://www.w3.org/1999/02/22-rdf-syntax-ns#" xmlns:svg="http://www.w3.org/2000/svg"
	 xmlns="http://www.w3.org/2000/svg" xmlns:xlink="http://www.w3.org/1999/xlink" x="0px" y="0px" width="1488.189px"
	 height="1052.363px" viewBox="0 0 1488.189 1052.363" xml:space="preserve">
<sodipodi:namedview  units="mm" inkscape:window-y="0" inkscape:window-x="0" inkscape:window-maximized="1" inkscape:guide-bbox="true" inkscape:window-height="795" inkscape:window-width="1440" inkscape:pageshadow="2" inkscape:pageopacity="1" inkscape:document-units="mm" inkscape:current-layer="layer2" showguides="false" showgrid="true" inkscape:cy="526.18109" id="base" pagecolor="#ffffff" borderopacity="1.0" inkscape:cx="744.09448" bordercolor="#666666" inkscape:zoom="0.45991771">
	<sodipodi:guide  position="478.34646,974.40945" orientation="0,1" id="guide24376"></sodipodi:guide>
	<sodipodi:guide  position="35.433071,938.97638" orientation="1,0" id="guide24416"></sodipodi:guide>
	<sodipodi:guide  position="1452.7559,921.25984" orientation="1,0" id="guide24418"></sodipodi:guide>
	<sodipodi:guide  position="974.40945,106.29921" orientation="0,1" id="guide24420"></sodipodi:guide>
	<sodipodi:guide  position="389.76378,938.97638" orientation="0,1" id="guide24422"></sodipodi:guide>
	<sodipodi:guide  position="701.5748,1009.8425" orientation="0,1" id="guide24424"></sodipodi:guide>
	<sodipodi:guide  position="230.31496,921.25984" orientation="0,1" id="guide25257"></sodipodi:guide>
</sodipodi:namedview>
<a id="a24212" xlink:href="http://creativecommons.org/licenses/by-sa/3.0/"  transform="matrix(0.56208624,0,0,0.56208624,1028.2309,500.82271)" xlink:title="CC BY-SA">
	<text transform="matrix(1.7791 0 0 1.7791 -406.8824 834.9462)" font-family="'TitilliumText25L-250wt'" font-size="9">This work is licensed under the Creative Commons Attribution-Share Alike 3.0 Unported License.</text>
	<text transform="matrix(1.7791 0 0 1.7791 255.303 834.9462)" font-family="'TitilliumText25L-250wt'" font-size="10"> </text>
	<text transform="matrix(1.7791 0 0 1.7791 -406.8824 854.9609)" font-family="'TitilliumText25L-250wt'" font-size="9">To view a copy of this license, visit http://creativecommons.org/licenses/by-sa/3.0/</text>
	<text transform="matrix(1.7791 0 0 1.7791 178.4182 854.9609)" font-family="'TitilliumText25L-250wt'" font-size="10"> </text>
	<text transform="matrix(1.7791 0 0 1.7791 -406.8824 874.9757)" font-family="'TitilliumText25L-250wt'" font-size="9">or send a letter to Creative Commons, 171 Second Street, Suite 300, San Francisco, California, 94105, USA.</text>
</a>
<g id="g25400" transform="matrix(0.83432244,0,0,0.83432244,242.1812,154.35087)">
	<g id="g9971" transform="matrix(0.7026078,0,0,-0.7026078,-2047.1135,1073.3221)">
		<image width="97" height="97" xlink:href="D0EA84CA510B0E00.png"  transform="matrix(1.7059 0 0 -1.7059 4864.1401 203.285)">
		</image>
	</g>
	<g id="g9983" transform="matrix(0.7026078,0,0,-0.7026078,-2047.1135,1073.3221)">
		<image width="97" height="97" xlink:href="D0EA84CA510B0E01.png"  transform="matrix(1.7059 0 0 -1.7059 4517.8428 203.285)">
		</image>
	</g>
	<g id="g9995" transform="matrix(0.7026078,0,0,-0.7026078,-2047.1135,1073.3221)">
		<image width="97" height="97" xlink:href="D0EA84CA510B0E07.png"  transform="matrix(1.7059 0 0 -1.7059 4686.7266 203.285)">
		</image>
	</g>
	<g id="g10007" transform="matrix(0.7026078,0,0,-0.7026078,-2047.1135,1073.3221)">
		<image width="97" height="97" xlink:href="D0EA84CA510B0E02.png"  transform="matrix(1.7059 0 0 -1.7059 4770.3159 203.285)">
		</image>
	</g>
	<g id="g10019" transform="matrix(0.7026078,0,0,-0.7026078,-2047.1135,1073.3221)">
		<image width="97" height="97" xlink:href="D0EA84CA510B0E03.png"  transform="matrix(1.7059 0 0 -1.7059 4601.4316 203.285)">
		</image>
	</g>
</g>
<g id="text2993" transform="translate(-54.489215,-280.29548)" inkscape:export-ydpi="100.01622" inkscape:export-filename="/Users/massimomenichinelli/Dropbox/openp2pdesign.org/2013/Cava dei Tirreni/toolkit/logo.png" inkscape:export-xdpi="100.01622">
	<path id="path2998" inkscape:connector-curvature="0" d="M102.586,358.348c-1.681,0-3.265-0.312-4.752-0.936
		c-1.44-0.624-2.713-1.488-3.816-2.592c-1.104-1.104-1.968-2.376-2.592-3.816c-0.624-1.488-0.937-3.072-0.937-4.752v-24.48
		c0-1.68,0.312-3.24,0.937-4.68c0.624-1.488,1.487-2.784,2.592-3.888c1.104-1.104,2.376-1.968,3.816-2.592
		c1.487-0.624,3.071-0.936,4.752-0.937c1.68,0,3.239,0.312,4.68,0.937c1.488,0.624,2.784,1.488,3.888,2.592
		c1.104,1.104,1.968,2.4,2.592,3.888c0.624,1.44,0.937,3,0.937,4.68v24.48c0,1.68-0.312,3.264-0.937,4.752
		c-0.624,1.44-1.487,2.712-2.592,3.816c-1.104,1.104-2.399,1.968-3.888,2.592C105.825,358.036,104.265,358.348,102.586,358.348
		 M102.586,316.588c-1.44,0-2.664,0.504-3.673,1.512c-1.008,1.008-1.512,2.232-1.512,3.672v24.48c0,1.44,0.504,2.664,1.512,3.672
		c1.009,1.008,2.232,1.512,3.673,1.512c1.439,0,2.663-0.504,3.672-1.512c1.008-1.008,1.512-2.232,1.512-3.672v-24.48
		c0-1.44-0.504-2.664-1.512-3.672C105.249,317.092,104.025,316.588,102.586,316.588"/>
	<path id="path3000" inkscape:connector-curvature="0" d="M124.622,372.532c-0.912,0-1.68-0.312-2.304-0.936
		s-0.937-1.392-0.937-2.304V326.38c0-0.912,0.312-1.68,0.937-2.304s1.392-0.936,2.304-0.936h7.2c1.439,0,2.784,0.288,4.032,0.864
		c1.296,0.528,2.399,1.272,3.312,2.232c0.96,0.912,1.704,2.016,2.232,3.312c0.575,1.248,0.863,2.592,0.863,4.032v13.824
		c0,1.44-0.288,2.808-0.863,4.104c-0.528,1.248-1.272,2.352-2.232,3.312c-0.912,0.912-2.016,1.632-3.312,2.16
		c-1.248,0.576-2.593,0.864-4.032,0.864h-3.96v11.448c0,0.912-0.312,1.68-0.937,2.304S125.534,372.532,124.622,372.532
		 M135.782,333.58c0-1.104-0.384-2.04-1.152-2.808c-0.768-0.768-1.704-1.152-2.808-1.152h-3.96v21.744h3.96
		c1.104,0,2.04-0.384,2.808-1.152c0.769-0.768,1.152-1.704,1.152-2.808V333.58"/>
	<path id="path3002" inkscape:connector-curvature="0" d="M154.982,357.339c-2.016-0.816-3.6-2.088-4.752-3.816
		s-1.729-3.672-1.729-5.832v-14.4c0-1.44,0.265-2.784,0.792-4.032c0.576-1.296,1.32-2.4,2.232-3.312
		c0.96-0.96,2.064-1.704,3.312-2.232c1.296-0.576,2.663-0.864,4.104-0.864s2.784,0.288,4.032,0.864
		c1.296,0.528,2.399,1.272,3.312,2.232c0.96,0.912,1.704,2.016,2.232,3.312c0.576,1.248,0.864,2.592,0.864,4.032v7.2
		c0,0.912-0.312,1.68-0.937,2.304s-1.392,0.936-2.304,0.936h-11.16v3.96c0,0.816,0.216,1.56,0.648,2.232
		c0.432,0.624,1.031,1.104,1.8,1.44c0.768,0.288,1.536,0.36,2.304,0.216s1.44-0.504,2.016-1.08c0.624-0.672,1.368-1.008,2.232-1.008
		c0.912,0,1.704,0.336,2.376,1.008c0.624,0.672,0.936,1.44,0.936,2.304c0,0.864-0.312,1.632-0.936,2.304
		c-1.536,1.488-3.336,2.424-5.4,2.808C158.942,358.348,156.95,358.156,154.982,357.339 M158.942,329.332
		c-1.104,0-2.04,0.384-2.808,1.152c-0.769,0.768-1.152,1.704-1.152,2.808v3.96h7.92v-3.96c0-1.104-0.384-2.04-1.152-2.808
		C160.982,329.716,160.047,329.332,158.942,329.332"/>
	<path id="path3004" inkscape:connector-curvature="0" d="M179.044,358.131c-0.912,0-1.68-0.312-2.304-0.936
		s-0.937-1.392-0.937-2.304V326.38c0-0.912,0.312-1.68,0.937-2.304s1.392-0.936,2.304-0.936h7.2c1.439,0,2.784,0.288,4.032,0.864
		c1.296,0.528,2.399,1.272,3.312,2.232c0.96,0.912,1.704,2.016,2.232,3.312c0.575,1.248,0.863,2.592,0.863,4.032v21.312
		c0,0.912-0.336,1.68-1.008,2.304c-0.624,0.624-1.368,0.936-2.231,0.936c-0.912,0-1.681-0.312-2.305-0.936s-0.936-1.392-0.936-2.304
		V333.58c0-1.104-0.384-2.04-1.152-2.808c-0.768-0.768-1.704-1.152-2.808-1.152h-3.96v25.272c0,0.912-0.336,1.68-1.008,2.304
		C180.652,357.82,179.908,358.132,179.044,358.131"/>
	<path id="path3006" inkscape:connector-curvature="0" d="M221.091,358.348c-0.96,0-1.776-0.336-2.448-1.008
		c-0.672-0.672-1.008-1.488-1.008-2.448v-41.76c0-0.815,0.24-1.536,0.72-2.16c0.48-0.624,1.128-1.032,1.944-1.224
		s1.584-0.096,2.304,0.288c0.721,0.336,1.248,0.888,1.584,1.656c0.96,2.112,1.944,4.2,2.952,6.264
		c0.816,1.824,1.729,3.768,2.736,5.832c1.008,2.016,1.92,3.912,2.735,5.688c0.816-1.776,1.704-3.672,2.664-5.688
		c1.009-2.064,1.92-4.008,2.736-5.832c0.96-2.064,1.944-4.152,2.952-6.264c0.384-0.768,0.912-1.32,1.584-1.656
		c0.72-0.384,1.488-0.48,2.304-0.288c0.816,0.192,1.464,0.6,1.944,1.224c0.527,0.624,0.792,1.344,0.792,2.16v41.76
		c0,0.96-0.336,1.776-1.008,2.448c-0.673,0.672-1.488,1.008-2.448,1.008s-1.776-0.336-2.448-1.008
		c-0.672-0.672-1.008-1.488-1.008-2.448v-26.28c-0.624,1.296-1.224,2.568-1.8,3.816s-1.104,2.352-1.584,3.312
		c-0.528,1.152-1.057,2.256-1.584,3.312c-0.288,0.624-0.721,1.128-1.296,1.512c-0.528,0.336-1.128,0.504-1.801,0.504
		c-1.487,0-2.544-0.672-3.168-2.016c-0.527-1.056-1.056-2.16-1.584-3.312c-0.479-0.96-1.008-2.064-1.584-3.312
		c-0.575-1.248-1.151-2.52-1.728-3.816v26.28c0,0.96-0.336,1.776-1.008,2.448C222.867,358.012,222.05,358.348,221.091,358.348"/>
	<path id="path3008" inkscape:connector-curvature="0" d="M260.873,357.339c-2.016-0.816-3.6-2.088-4.752-3.816
		c-1.152-1.728-1.729-3.672-1.729-5.832v-14.4c0-1.44,0.265-2.784,0.792-4.032c0.576-1.296,1.32-2.4,2.232-3.312
		c0.96-0.96,2.064-1.704,3.312-2.232c1.296-0.576,2.663-0.864,4.104-0.864s2.784,0.288,4.032,0.864
		c1.296,0.528,2.399,1.272,3.312,2.232c0.96,0.912,1.704,2.016,2.232,3.312c0.576,1.248,0.864,2.592,0.864,4.032v7.2
		c0,0.912-0.312,1.68-0.937,2.304s-1.392,0.936-2.304,0.936h-11.16v3.96c0,0.816,0.216,1.56,0.648,2.232
		c0.432,0.624,1.031,1.104,1.8,1.44c0.768,0.288,1.536,0.36,2.304,0.216s1.44-0.504,2.016-1.08c0.624-0.672,1.368-1.008,2.232-1.008
		c0.912,0,1.704,0.336,2.376,1.008c0.624,0.672,0.936,1.44,0.937,2.304c-0.001,0.864-0.312,1.632-0.937,2.304
		c-1.536,1.488-3.336,2.424-5.4,2.808C264.833,358.348,262.841,358.156,260.873,357.339 M264.833,329.332
		c-1.104,0-2.04,0.384-2.808,1.152c-0.769,0.768-1.152,1.704-1.152,2.808v3.96h7.92v-3.96c0-1.104-0.384-2.04-1.152-2.808
		C266.873,329.716,265.937,329.332,264.833,329.332"/>
	<path id="path3010" inkscape:connector-curvature="0" d="M281.766,329.62c-0.912,0-1.68-0.312-2.304-0.936
		s-0.937-1.392-0.937-2.304c0-0.912,0.312-1.68,0.937-2.304s1.392-0.936,2.304-0.936h2.52v-11.448c0-0.912,0.312-1.68,0.937-2.304
		s1.392-0.936,2.304-0.936s1.68,0.312,2.304,0.936s0.937,1.392,0.937,2.304v11.448h3.96c0.912,0,1.68,0.312,2.304,0.936
		s0.937,1.392,0.937,2.304c0,0.912-0.312,1.68-0.937,2.304s-1.392,0.936-2.304,0.936h-3.96v18.072c0,1.104,0.384,2.04,1.152,2.808
		c0.768,0.768,1.703,1.152,2.808,1.152c0.912,0,1.68,0.312,2.304,0.936s0.937,1.392,0.937,2.304s-0.312,1.68-0.937,2.304
		s-1.392,0.936-2.304,0.936c-1.44,0-2.808-0.288-4.104-0.864c-1.248-0.528-2.352-1.248-3.312-2.16
		c-0.912-0.96-1.656-2.064-2.232-3.312c-0.527-1.296-0.792-2.664-0.792-4.104V329.62H281.766L281.766,329.62"/>
	<path id="path3012" inkscape:connector-curvature="0" d="M314.59,336.964v-3.816c0-0.768-0.217-1.464-0.648-2.088
		c-0.432-0.672-1.008-1.152-1.728-1.44c-0.721-0.288-1.465-0.36-2.232-0.216c-0.768,0.144-1.416,0.504-1.944,1.08
		c-0.624,0.624-1.392,0.936-2.304,0.936c-0.864,0-1.607-0.312-2.231-0.936c-0.673-0.672-1.009-1.44-1.009-2.304
		c0-0.864,0.336-1.632,1.009-2.304c1.487-1.488,3.239-2.424,5.256-2.808c2.016-0.432,3.983-0.24,5.903,0.576
		c1.969,0.816,3.528,2.088,4.681,3.816c1.151,1.68,1.728,3.576,1.728,5.688v21.456c0,0.912-0.312,1.68-0.936,2.304
		s-1.393,0.936-2.305,0.936h-7.199c-1.44,0-2.809-0.288-4.104-0.864c-1.248-0.528-2.352-1.248-3.312-2.16
		c-0.912-0.96-1.656-2.064-2.232-3.312c-0.528-1.296-0.792-2.664-0.792-4.104s0.264-2.784,0.792-4.032
		c0.576-1.296,1.32-2.4,2.232-3.312c0.96-0.96,2.063-1.704,3.312-2.232c1.296-0.576,2.664-0.864,4.104-0.864H314.59 M310.63,343.443
		c-1.104,0-2.04,0.384-2.809,1.152c-0.768,0.769-1.151,1.704-1.151,2.808s0.384,2.04,1.151,2.808
		c0.769,0.768,1.704,1.152,2.809,1.152h3.96v-7.92H310.63"/>
	<path id="path3014" inkscape:connector-curvature="0" d="M340.261,309.964c1.681,0,3.24,0.312,4.681,0.936
		c1.487,0.625,2.783,1.488,3.888,2.592c1.104,1.104,1.968,2.4,2.592,3.888c0.624,1.44,0.937,3,0.937,4.68v23.904
		c0,1.68-0.312,3.264-0.937,4.752c-0.624,1.44-1.488,2.712-2.592,3.816c-1.104,1.104-2.4,1.968-3.888,2.592
		c-1.44,0.624-3,0.936-4.681,0.936h-8.64c-0.96,0-1.776-0.336-2.448-1.008c-0.672-0.672-1.008-1.488-1.008-2.448V313.42
		c0-0.96,0.336-1.776,1.008-2.448s1.488-1.008,2.448-1.008H340.261 M345.446,322.06c0-1.44-0.504-2.664-1.513-3.672
		c-1.008-1.008-2.231-1.512-3.672-1.512h-5.184v34.272h5.184c1.44,0,2.664-0.504,3.672-1.512c1.009-1.008,1.513-2.232,1.513-3.672
		V322.06"/>
	<path id="path3016" inkscape:connector-curvature="0" d="M364.795,357.339c-2.016-0.816-3.6-2.088-4.752-3.816
		s-1.729-3.672-1.729-5.832v-14.4c0-1.44,0.265-2.784,0.792-4.032c0.576-1.296,1.32-2.4,2.232-3.312
		c0.96-0.96,2.064-1.704,3.312-2.232c1.296-0.576,2.663-0.864,4.104-0.864s2.784,0.288,4.032,0.864
		c1.296,0.528,2.399,1.272,3.312,2.232c0.96,0.912,1.704,2.016,2.232,3.312c0.576,1.248,0.864,2.592,0.864,4.032v7.2
		c0,0.912-0.312,1.68-0.937,2.304s-1.392,0.936-2.304,0.936h-11.16v3.96c0,0.816,0.216,1.56,0.648,2.232
		c0.432,0.624,1.031,1.104,1.8,1.44c0.768,0.288,1.536,0.36,2.304,0.216s1.44-0.504,2.016-1.08c0.624-0.672,1.368-1.008,2.232-1.008
		c0.912,0,1.704,0.336,2.376,1.008c0.624,0.672,0.936,1.44,0.936,2.304c0,0.864-0.312,1.632-0.936,2.304
		c-1.536,1.488-3.336,2.424-5.4,2.808C368.755,358.348,366.762,358.156,364.795,357.339 M368.755,329.332
		c-1.104,0-2.04,0.384-2.808,1.152c-0.769,0.768-1.152,1.704-1.152,2.808v3.96h7.92v-3.96c0-1.104-0.384-2.04-1.152-2.808
		C370.795,329.716,369.858,329.332,368.755,329.332"/>
	<path id="path3018" inkscape:connector-curvature="0" d="M395.408,350.715c0.864-0.72,1.248-1.656,1.152-2.808
		c-0.096-1.2-0.576-2.088-1.44-2.664l-6.768-4.68c-1.2-0.864-2.16-1.92-2.88-3.168c-0.721-1.296-1.128-2.688-1.225-4.176
		c-0.096-1.488,0.12-2.904,0.648-4.248c0.576-1.392,1.416-2.592,2.52-3.6c1.104-0.96,2.353-1.656,3.744-2.088
		c1.393-0.432,2.832-0.528,4.32-0.288c1.439,0.24,2.76,0.768,3.96,1.584s2.184,1.872,2.952,3.168
		c0.432,0.768,0.527,1.584,0.288,2.448c-0.192,0.864-0.696,1.512-1.513,1.944c-0.768,0.432-1.584,0.552-2.447,0.36
		c-0.864-0.24-1.513-0.744-1.944-1.512c-0.528-0.912-1.296-1.44-2.304-1.584c-0.96-0.192-1.849,0.072-2.664,0.792
		c-0.816,0.672-1.176,1.536-1.08,2.592c0.096,1.008,0.552,1.824,1.368,2.448l6.695,4.68c1.248,0.912,2.232,2.016,2.952,3.312
		c0.769,1.296,1.2,2.712,1.296,4.248c0.097,1.536-0.144,3-0.72,4.392c-0.528,1.392-1.368,2.616-2.52,3.672
		c-1.104,1.008-2.376,1.728-3.816,2.16c-1.44,0.432-2.928,0.528-4.464,0.288c-1.536-0.24-2.928-0.768-4.176-1.584
		c-1.2-0.864-2.185-1.968-2.952-3.312c-0.433-0.768-0.552-1.584-0.36-2.448c0.24-0.864,0.744-1.512,1.513-1.944
		c0.815-0.432,1.655-0.528,2.52-0.288c0.864,0.192,1.512,0.672,1.944,1.44c0.527,1.008,1.367,1.584,2.52,1.728
		C393.584,351.772,394.544,351.484,395.408,350.715"/>
	<path id="path3020" inkscape:connector-curvature="0" d="M412.481,319.252c-1.104,0-2.04-0.384-2.808-1.152
		c-0.769-0.768-1.152-1.704-1.152-2.808s0.384-2.04,1.152-2.808c0.768-0.768,1.703-1.152,2.808-1.152
		c1.104,0,2.04,0.384,2.808,1.152c0.769,0.768,1.152,1.704,1.152,2.808s-0.384,2.04-1.152,2.808
		C414.521,318.868,413.585,319.252,412.481,319.252 M415.721,354.892c0,0.912-0.312,1.68-0.937,2.304s-1.392,0.936-2.304,0.936
		s-1.68-0.312-2.304-0.936s-0.937-1.392-0.937-2.304v-28.8c0-0.912,0.312-1.68,0.937-2.304s1.392-0.936,2.304-0.936
		s1.68,0.312,2.304,0.936s0.937,1.392,0.937,2.304V354.892"/>
	<path id="path3022" inkscape:connector-curvature="0" d="M433.161,357.844c-1.44,0-2.808-0.288-4.104-0.864
		c-1.248-0.528-2.353-1.248-3.312-2.16c-0.912-0.96-1.656-2.064-2.232-3.312c-0.527-1.296-0.792-2.664-0.792-4.104V333.58
		c0-1.44,0.265-2.784,0.792-4.032c0.576-1.296,1.32-2.4,2.232-3.312c0.96-0.96,2.064-1.704,3.312-2.232
		c1.296-0.576,2.663-0.864,4.104-0.864h7.2c0.912,0,1.68,0.312,2.304,0.936s0.937,1.392,0.937,2.304v35.712
		c0,2.16-0.576,4.104-1.729,5.832s-2.712,3-4.68,3.816c-2.017,0.816-4.057,1.008-6.12,0.576c-2.016-0.384-3.769-1.32-5.256-2.808
		c-0.672-0.672-1.008-1.44-1.008-2.304c0-0.864,0.336-1.632,1.008-2.304c0.624-0.672,1.368-1.008,2.231-1.008
		c0.912,0,1.681,0.336,2.305,1.008c0.575,0.576,1.248,0.936,2.016,1.08c0.816,0.144,1.584,0.072,2.304-0.216
		c0.769-0.336,1.368-0.84,1.8-1.512c0.433-0.624,0.648-1.344,0.648-2.16v-4.248H433.161 M433.161,329.62
		c-1.104,0-2.04,0.384-2.808,1.152c-0.769,0.768-1.152,1.704-1.152,2.808v13.824c0,1.104,0.384,2.04,1.152,2.808
		c0.768,0.768,1.703,1.152,2.808,1.152h3.96V329.62H433.161"/>
	<path id="path3024" inkscape:connector-curvature="0" d="M454.387,358.131c-0.912,0-1.68-0.312-2.304-0.936
		s-0.937-1.392-0.937-2.304V326.38c0-0.912,0.312-1.68,0.937-2.304s1.392-0.936,2.304-0.936h7.2c1.44,0,2.784,0.288,4.032,0.864
		c1.296,0.528,2.399,1.272,3.312,2.232c0.96,0.912,1.704,2.016,2.232,3.312c0.576,1.248,0.864,2.592,0.864,4.032v21.312
		c0,0.912-0.336,1.68-1.009,2.304c-0.624,0.624-1.367,0.936-2.231,0.936c-0.912,0-1.68-0.312-2.304-0.936s-0.937-1.392-0.937-2.304
		V333.58c0-1.104-0.384-2.04-1.152-2.808c-0.768-0.768-1.703-1.152-2.808-1.152h-3.96v25.272c0,0.912-0.336,1.68-1.008,2.304
		C455.996,357.82,455.252,358.132,454.387,358.131"/>
</g>
<text transform="matrix(1 0 0 1 494.0232 77.9527)" font-family="'TitilliumText25L-600wt'" font-size="40">Business Model Canvas</text>
<text transform="matrix(1 0 0 1 425.197 77.9527)" font-family="'TitilliumText25L-600wt'" font-size="20">0.1</text>
<rect id="rect25259" x="35.433" y="113.386" fill="#F6F6F6" stroke="#000000" stroke-width="1.7908" stroke-linejoin="round" width="1417.322" height="832.676"/>
<text transform="matrix(1 0 0 1 35.4333 1008.9293)" font-family="'TitilliumText25L-600wt'" font-size="14">Designed by:</text>
<text transform="matrix(1 0 0 1 36.7634 973.4957)" font-family="'TitilliumText25L-600wt'" font-size="14">Project:</text>
<text transform="matrix(1 0 0 1 407.4807 973.4957)" font-family="'TitilliumText25L-600wt'" font-size="14">Link:</text>
<text transform="matrix(1 0 0 1 406.6775 1008.9293)" font-family="'TitilliumText25L-600wt'" font-size="14">Designed for:</text>
<path id="path25277" sodipodi:nodetypes="cc" inkscape:connector-curvature="0" fill="none" stroke="#CFCFCF" stroke-width="1.4127" stroke-dasharray="1.4127,4.238" d="
	M90.619,973.496c246.404,0,299.145,0,299.145,0"/>
<path id="path25279" sodipodi:nodetypes="cc" inkscape:connector-curvature="0" fill="none" stroke="#CFCFCF" stroke-width="1.5027" stroke-dasharray="1.5027,4.508" d="
	M442.865,973.496c298.714,0,318.946,0,318.946,0"/>
<path id="path25281" sodipodi:nodetypes="cc" inkscape:connector-curvature="0" fill="none" stroke="#CFCFCF" stroke-width="1.3717" stroke-dasharray="1.3717,4.1152" d="
	M121.691,1008.929c232.334,0,268.072,0,268.072,0"/>
<path id="path25301" sodipodi:nodetypes="cc" inkscape:connector-curvature="0" fill="none" stroke="#CFCFCF" stroke-width="1.3717" stroke-dasharray="1.3717,4.1152" d="
	M495.239,1008.929c232.334,0,267.929,0,267.929,0"/>
<a id="layer1" xlink:href="http://creativecommons.org/licenses/by-sa/3.0/"  transform="translate(0,2.988066e-5)" inkscape:label="Layout" xlink:title="CC BY-SA" inkscape:groupmode="layer">
	<a id="a36382" xlink:href="http://businessmodelgeneration.com/"  xlink:title="http://businessmodelgeneration.com/">
		<text transform="matrix(1.7791 0 0 1.7791 -406.8824 834.9483)" font-family="'TitilliumText25L-250wt'" font-size="10">Original development of the Business Model Canvas: BusinessModelGeneration.com</text>
	</a>
</a>
<g id="layer4" inkscape:label="business model canvas" inkscape:groupmode="layer">
	<text transform="matrix(1 0 0 1 53.1496 775.9839)" fill="#838383" font-family="'TitilliumText25L-250wt'" font-size="9.4911">What are the most important costs inherent in our business model?</text>
	<text transform="matrix(1 0 0 1 53.1496 785.4752)" fill="#838383" font-family="'TitilliumText25L-250wt'" font-size="9.4911">Which Key Resources are most expensive?</text>
	<text transform="matrix(1 0 0 1 53.1496 794.9664)" fill="#838383" font-family="'TitilliumText25L-250wt'" font-size="9.4911">Which Key Activities are most expensive?</text>
	<text transform="matrix(1 0 0 1 903.5436 474.8023)" fill="#838383" font-family="'TitilliumText25L-250wt'" font-size="9.4911">Through which Channels do our Customer Segments</text>
	<text transform="matrix(1 0 0 1 903.5436 484.2935)" fill="#838383" font-family="'TitilliumText25L-250wt'" font-size="9.4911">want to be reached?</text>
	<text transform="matrix(1 0 0 1 903.5436 493.7847)" fill="#838383" font-family="'TitilliumText25L-250wt'" font-size="9.4911">How are we reaching them now?</text>
	<text transform="matrix(1 0 0 1 903.5436 503.2759)" fill="#838383" font-family="'TitilliumText25L-250wt'" font-size="9.4911">How are our Channels integrated?</text>
	<text transform="matrix(1 0 0 1 903.5436 512.7672)" fill="#838383" font-family="'TitilliumText25L-250wt'" font-size="9.4911">Which ones work best?</text>
	<text transform="matrix(1 0 0 1 903.5436 522.2584)" fill="#838383" font-family="'TitilliumText25L-250wt'" font-size="9.4911">Which ones are most cost-efficient?</text>
	<text transform="matrix(1 0 0 1 903.5436 531.7496)" fill="#838383" font-family="'TitilliumText25L-250wt'" font-size="9.4911">How are we integrating them with customer routines?</text>
	<text transform="matrix(1 0 0 1 903.5436 173.6216)" fill="#838383" font-family="'TitilliumText25L-250wt'" font-size="9.4911">What type of relationships do each of our Customer</text>
	<text transform="matrix(1 0 0 1 903.5436 183.1129)" fill="#838383" font-family="'TitilliumText25L-250wt'" font-size="9.4911">Segments expect us to establish and maintain with them?</text>
	<text transform="matrix(1 0 0 1 903.5436 192.6041)" fill="#838383" font-family="'TitilliumText25L-250wt'" font-size="9.4911">Which ones have we established?</text>
	<text transform="matrix(1 0 0 1 903.5436 202.0953)" fill="#838383" font-family="'TitilliumText25L-250wt'" font-size="9.4911">How are they integrated with the rest of our business model?</text>
	<text transform="matrix(1 0 0 1 903.5436 211.5865)" fill="#838383" font-family="'TitilliumText25L-250wt'" font-size="9.4911">How costly are they?</text>
	<text transform="matrix(1 0 0 1 53.1496 173.6216)" fill="#838383" font-family="'TitilliumText25L-250wt'" font-size="9.4911">Who are our Key Partners?</text>
	<text transform="matrix(1 0 0 1 53.1496 183.1129)" fill="#838383" font-family="'TitilliumText25L-250wt'" font-size="9.4911">Who are our key suppliers?</text>
	<text transform="matrix(1 0 0 1 53.1496 192.6041)" fill="#838383" font-family="'TitilliumText25L-250wt'" font-size="9.4911">Which Key Resources are we acquiring from partners?</text>
	<text transform="matrix(1 0 0 1 53.1496 202.0953)" fill="#838383" font-family="'TitilliumText25L-250wt'" font-size="9.4911">Which Key Activitis do partners perform?</text>
	<text transform="matrix(1 0 0 1 761.8112 751.1802)" font-family="'TitilliumText25L-800wt'" font-size="21.0914">Revenue Streams</text>
	<text transform="matrix(1 0 0 1 903.5436 449.9996)" font-family="'TitilliumText25L-800wt'" font-size="21.0914">Channels</text>
	<text transform="matrix(1 0 0 1 336.6144 449.9996)" font-family="'TitilliumText25L-800wt'" font-size="21.0914">Key Resources</text>
	<g id="g16" transform="matrix(0.28832235,0,0,-0.28832235,35.80106,721.27265)">
		<path id="path18" inkscape:connector-curvature="0" fill="none" stroke="#231F20" stroke-width="8.759" d="M0.001-0.001h4907.68"
			/>
	</g>
	<g id="g20" transform="matrix(0.28832235,0,0,-0.28832235,320.56743,720.0098)">
		<path id="path22" inkscape:connector-curvature="0" fill="none" stroke="#231F20" stroke-width="8.759" d="M-0.001,0.002v2100.48"
			/>
	</g>
	<g id="g24" transform="matrix(0.28832235,0,0,-0.28832235,602.8081,720.0098)">
		<path id="path26" inkscape:connector-curvature="0" fill="none" stroke="#231F20" stroke-width="8.759" d="M0.001,0.002v2100.48"
			/>
	</g>
	<g id="g28" transform="matrix(0.28832235,0,0,-0.28832235,885.04899,720.0098)">
		<path id="path30" inkscape:connector-curvature="0" fill="none" stroke="#231F20" stroke-width="8.759" d="M0.002,0.002v2100.48"
			/>
	</g>
	<g id="g32" transform="matrix(0.28832235,0,0,-0.28832235,1167.2898,720.0098)">
		<path id="path34" inkscape:connector-curvature="0" fill="none" stroke="#231F20" stroke-width="8.759" d="M0,0.002v2100.48"/>
	</g>
	<g id="g36" transform="matrix(0.28832235,0,0,-0.28832235,320.56743,415.27252)">
		<path id="path38" inkscape:connector-curvature="0" fill="none" stroke="#231F20" stroke-width="8.759" d="M-0.001,0h983.289"/>
	</g>
	<g id="g40" transform="matrix(0.28832235,0,0,-0.28832235,742.03444,942.1976)">
		<path id="path42" inkscape:connector-curvature="0" fill="none" stroke="#231F20" stroke-width="8.759" d="M0.002,0.002v761.864"
			/>
	</g>
	<g id="g44" transform="matrix(0.28832235,0,0,-0.28832235,883.78614,415.27252)">
		<path id="path46" inkscape:connector-curvature="0" fill="none" stroke="#231F20" stroke-width="8.759" d="M0.003,0h983.286"/>
	</g>
	<text transform="matrix(1 0 0 1 620.079 148.819)" font-family="'TitilliumText25L-800wt'" font-size="21.0914">Value Propositions</text>
	<g id="g338" transform="matrix(0.28832235,0,0,-0.28832235,-4.0432453,1002.836)">
		<image width="387" height="213" xlink:href="D0EA84CA510B0E0E.png"  transform="matrix(3.4683 0 0 -3.4683 3668.2524 3125.5149)">
		</image>
	</g>
	<g id="g1058" transform="matrix(0.28832235,0,0,-0.28832235,-4.0432453,1002.836)">
		<image width="387" height="213" xlink:href="D0EA84CA510B0E0F.png"  transform="matrix(3.4683 0 0 -3.4683 2273.978 3201.8184)">
		</image>
	</g>
	<g id="g1778" transform="matrix(0.25195053,0,0,-0.25195053,140.8534,929.29768)">
		<image width="339" height="187" xlink:href="D0EA84CA510B0E04.png"  transform="matrix(3.969 0 0 -3.969 2971.7732 2320.3574)">
		</image>
	</g>
	<g id="g2498" transform="matrix(0.2152645,0,0,-0.2152645,296.09597,781.71962)">
		<image width="289" height="159" xlink:href="D0EA84CA510B0E05.png"  transform="matrix(4.6455 0 0 -4.6455 2998.6372 3029.0171)">
		</image>
	</g>
	<g id="g3218" transform="matrix(0.28832235,0,0,-0.28832235,-4.0432453,1002.836)">
		<image width="387" height="213" xlink:href="31E5313DB699065F.png"  transform="matrix(3.4683 0 0 -3.4683 1528.2839 3076.958)">
		</image>
	</g>
	<g id="g3938" transform="matrix(0.28832235,0,0,-0.28832235,-4.0432453,1002.836)">
		<image width="388" height="213" xlink:href="31E5313DB699065D.png"  transform="matrix(3.4683 0 0 -3.4683 858.8934 3201.8184)">
		</image>
	</g>
	<g id="g4658" transform="matrix(0.28832235,0,0,-0.28832235,-4.0432453,1002.836)">
		<image width="387" height="213" xlink:href="31E5313DB699065B.png"  transform="matrix(3.4683 0 0 -3.4683 2187.2693 1450.3044)">
		</image>
	</g>
	<g id="g5378" transform="matrix(0.21910791,0,0,-0.21910791,138.24609,865.9121)">
		<image width="295" height="163" xlink:href="31E5313DB6990655.png"  transform="matrix(4.564 0 0 -4.564 1557.9009 2296.7251)">
		</image>
	</g>
	<g id="g6098" transform="matrix(0.2551513,0,0,-0.2551513,164.50423,964.36478)">
		<image width="343" height="188" xlink:href="31E5313DB6990657.png"  transform="matrix(3.9192 0 0 -3.9192 3739.3169 1401.8505)">
		</image>
	</g>
	<text transform="matrix(1 0 0 1 53.1498 148.819)" font-family="'TitilliumText25L-800wt'" font-size="21.0914">Key Partners</text>
	<text transform="matrix(1 0 0 1 336.6147 148.819)" font-family="'TitilliumText25L-800wt'" font-size="21.0914">Key Activities</text>
	<text transform="matrix(1 0 0 1 903.5438 148.819)" font-family="'TitilliumText25L-800wt'" font-size="21.0914">Customer Relationships</text>
	<text transform="matrix(1 0 0 1 1187.0087 148.819)" font-family="'TitilliumText25L-800wt'" font-size="21.0914">Customer Segments</text>
	<text transform="matrix(1 0 0 1 53.1498 751.1803)" font-family="'TitilliumText25L-800wt'" font-size="21.0914">Cost Structure</text>
	<text transform="matrix(1 0 0 1 336.6147 173.6217)" fill="#838383" font-family="'TitilliumText25L-250wt'" font-size="9.4911">What Key Activities do our Value Propositions </text>
	<text transform="matrix(1 0 0 1 336.6147 183.1129)" fill="#838383" font-family="'TitilliumText25L-250wt'" font-size="9.4911">require?</text>
	<text transform="matrix(1 0 0 1 336.6147 192.6041)" fill="#838383" font-family="'TitilliumText25L-250wt'" font-size="9.4911">Our Distribution Channels?</text>
	<text transform="matrix(1 0 0 1 336.6147 202.0953)" fill="#838383" font-family="'TitilliumText25L-250wt'" font-size="9.4911">Customer Relationships?</text>
	<text transform="matrix(1 0 0 1 336.6147 211.5865)" fill="#838383" font-family="'TitilliumText25L-250wt'" font-size="9.4911">Revenue Strams?</text>
	<text transform="matrix(1 0 0 1 620.079 173.6217)" fill="#838383" font-family="'TitilliumText25L-250wt'" font-size="9.4911">What value do we deliver to the customer?</text>
	<text transform="matrix(1 0 0 1 620.079 183.1129)" fill="#838383" font-family="'TitilliumText25L-250wt'" font-size="9.4911">Which one of our customer&apos;s probles are we </text>
	<text transform="matrix(1 0 0 1 620.079 192.6041)" fill="#838383" font-family="'TitilliumText25L-250wt'" font-size="9.4911">helping to solve?</text>
	<text transform="matrix(1 0 0 1 620.079 202.0953)" fill="#838383" font-family="'TitilliumText25L-250wt'" font-size="9.4911">What bundles of products and services are we offering </text>
	<text transform="matrix(1 0 0 1 620.079 211.5865)" fill="#838383" font-family="'TitilliumText25L-250wt'" font-size="9.4911">to each Customer Segment?</text>
	<text transform="matrix(1 0 0 1 620.079 221.0768)" fill="#838383" font-family="'TitilliumText25L-250wt'" font-size="9.4911">Which customer needs are we satisfying?</text>
	<text transform="matrix(1 0 0 1 1187.0087 173.6217)" fill="#838383" font-family="'TitilliumText25L-250wt'" font-size="9.4911">For whom are we creating value?</text>
	<text transform="matrix(1 0 0 1 1187.0087 183.1129)" fill="#838383" font-family="'TitilliumText25L-250wt'" font-size="9.4911">Who are our most important customers?</text>
	<text transform="matrix(1 0 0 1 336.6147 474.8024)" fill="#838383" font-family="'TitilliumText25L-250wt'" font-size="9.4911">What Key Resources do our Value </text>
	<text transform="matrix(1 0 0 1 336.6147 484.2936)" fill="#838383" font-family="'TitilliumText25L-250wt'" font-size="9.4911">Propositions require? Our Distribution Channels? </text>
	<text transform="matrix(1 0 0 1 336.6147 493.7848)" fill="#838383" font-family="'TitilliumText25L-250wt'" font-size="9.4911">Customer Relationships? Revenue Streams?</text>
	<text transform="matrix(1 0 0 1 761.8114 775.984)" fill="#838383" font-family="'TitilliumText25L-250wt'" font-size="9.4911">For what value are our customers really willing to pay? For what do they currently pay? </text>
	<text transform="matrix(1 0 0 1 761.8114 785.4752)" fill="#838383" font-family="'TitilliumText25L-250wt'" font-size="9.4911">How are they currently paying?  How would they prefer to pay?</text>
	<text transform="matrix(1 0 0 1 761.8114 794.9664)" fill="#838383" font-family="'TitilliumText25L-250wt'" font-size="9.4911">How much does each Revenue Stram contribute to the overall revenues?</text>
	
		<rect id="rect35255" x="620.079" y="237.401" fill="#FFFFFF" stroke="#808080" stroke-width="0.7087" stroke-linejoin="round" width="248.031" height="460.629"/>
	
		<rect id="rect35259" x="903.544" y="219.685" fill="#FFFFFF" stroke="#808080" stroke-width="0.7087" stroke-linejoin="round" width="248.031" height="177.166"/>
	
		<rect id="rect35261" x="1187.009" y="201.968" fill="#FFFFFF" stroke="#808080" stroke-width="0.7087" stroke-linejoin="round" width="248.031" height="496.062"/>
	
		<rect id="rect35263" x="53.149" y="804.332" fill="#FFFFFF" stroke="#808080" stroke-width="0.7087" stroke-linejoin="round" width="673.229" height="124.016"/>
	
		<rect id="rect35277" x="761.811" y="804.332" fill="#FFFFFF" stroke="#808080" stroke-width="0.7087" stroke-linejoin="round" width="673.229" height="124.016"/>
	
		<rect id="rect35285" x="903.544" y="538.584" fill="#FFFFFF" stroke="#808080" stroke-width="0.7087" stroke-linejoin="round" width="248.031" height="159.447"/>
</g>
<text transform="matrix(1 0 0 1 119.6708 1008.9293)" font-family="'TitilliumText25L-250wt'" font-size="14">Name Surname - </text>
<text transform="matrix(1 0 0 1 88.5829 973.4957)" font-family="'TitilliumText25L-250wt'" font-size="14">Name of the project</text>
<text transform="matrix(1 0 0 1 440.8935 973.4957)" font-family="'TitilliumText25L-250wt'" font-size="14">http://www.google.com</text>
<text transform="matrix(1 0 0 1 493.8114 1008.9293)" font-family="'TitilliumText25L-250wt'" font-size="14">Community / Place / Organization</text>
<rect id="rect35241" x="53.149" y="219.685" fill="#FFFFFF" stroke="#808080" stroke-width="0.7087" stroke-linejoin="round" width="248.032" height="478.346"/>
<rect id="rect35243" x="336.614" y="219.685" fill="#FFFFFF" stroke="#808080" stroke-width="0.7087" stroke-linejoin="round" width="248.032" height="177.166"/>
<rect id="rect35283" x="336.614" y="503.15" fill="#FFFFFF" stroke="#808080" stroke-width="0.7087" stroke-linejoin="round" width="248.032" height="194.881"/>
<g id="flowRoot36386">
</g>
<g id="flowRoot36394">
</g>
<g id="flowRoot36402">
</g>
<g id="flowRoot36410">
</g>
<g id="flowRoot36418">
</g>
<g id="flowRoot36426">
</g>
<g id="flowRoot36434">
</g>
<g id="flowRoot36442">
</g>
<g id="flowRoot36450">
</g>
<rect x="69.245" y="819.525" fill="none" width="210" height="151"/>
<rect x="53.519" y="219.685" fill="#AA6E78" width="248.032" height="478.346"/>
<text transform="matrix(1 0 0 1 73.2445 251.9249)" fill="#FFFFFF" font-family="'TitilliumText25L-400wt'" font-size="14">Diges Ry</text>
<text transform="matrix(1 0 0 1 73.2445 280.7247)" fill="#FFFFFF" font-family="'TitilliumText25L-400wt'" font-size="14">Ornamo</text>
<text transform="matrix(1 0 0 1 73.2445 309.5255)" fill="#FFFFFF" font-family="'TitilliumText25L-400wt'" font-size="14">Design Forum</text>
<text transform="matrix(1 0 0 1 73.2445 338.3253)" fill="#FFFFFF" font-family="'TitilliumText25L-400wt'" font-size="14">Finatex </text>
<text transform="matrix(1 0 0 1 73.2445 367.1251)" fill="#FFFFFF" font-family="'TitilliumText25L-400wt'" font-size="14">Finpro</text>
<text transform="matrix(1 0 0 1 73.2445 395.9249)" fill="#FFFFFF" font-family="'TitilliumText25L-400wt'" font-size="14">Design Week</text>
<text transform="matrix(1 0 0 1 73.2445 424.7247)" fill="#FFFFFF" font-family="'TitilliumText25L-400wt'" font-size="14">Sitra</text>
<text transform="matrix(1 0 0 1 73.2445 453.5255)" fill="#FFFFFF" font-family="'TitilliumText25L-400wt'" font-size="14">Tekes</text>
<text transform="matrix(1 0 0 1 73.2445 482.3253)" fill="#FFFFFF" font-family="'TitilliumText25L-400wt'" font-size="14">Cultural Funds</text>
<text transform="matrix(1 0 0 1 73.2445 511.1251)" fill="#FFFFFF" font-family="'TitilliumText25L-400wt'" font-size="14">Media</text>
<text transform="matrix(1 0 0 1 73.2445 554.3258)" fill="#FFFFFF" font-family="'TitilliumText25L-400wt'" font-size="14">Education</text>
<text transform="matrix(1 0 0 1 73.2445 583.1246)" fill="#FFFFFF" font-family="'TitilliumText25L-400wt'" font-size="14">Organisations</text>
<text transform="matrix(1 0 0 1 73.2445 611.9254)" fill="#FFFFFF" font-family="'TitilliumText25L-400wt'" font-size="14">Foundations</text>
<text transform="matrix(1 0 0 1 73.2445 640.7242)" fill="#FFFFFF" font-family="'TitilliumText25L-400wt'" font-size="14">Government</text>
<rect x="620.401" y="237.688" fill="#915F73" width="248.034" height="461.919"/>
<rect x="1186.773" y="201.776" fill="#78506E" width="248.033" height="495.981"/>
<rect x="904.305" y="220.136" fill="#5F4169" width="248.033" height="176.216"/>
<rect x="903.913" y="538.293" fill="#503B72" width="248.033" height="159.628"/>
<rect x="337.009" y="218.664" fill="#5F4169" width="248.033" height="178.228"/>
<rect x="336.051" y="502.88" fill="#503B72" width="248.838" height="194.655"/>
<rect x="52.531" y="803.689" fill="#503B72" width="674.301" height="125.163"/>
<rect x="761.706" y="804.263" fill="#503B72" width="673.77" height="125.163"/>
<text transform="matrix(1 0 0 1 354.2445 248.9249)" fill="#FFFFFF" font-family="'TitilliumText25L-400wt'" font-size="14">Finnish Fashion Week</text>
<text transform="matrix(1 0 0 1 354.2445 277.7247)" fill="#FFFFFF" font-family="'TitilliumText25L-400wt'" font-size="14">Networking and other </text>
<text transform="matrix(1 0 0 1 354.2445 292.1251)" fill="#FFFFFF" font-family="'TitilliumText25L-400wt'" font-size="14">events/organizing events</text>
<text transform="matrix(1 0 0 1 354.2445 320.9249)" fill="#FFFFFF" font-family="'TitilliumText25L-400wt'" font-size="14">PR-PLATFORM</text>
<text transform="matrix(1 0 0 1 354.2445 533.9254)" fill="#FFFFFF" font-family="'TitilliumText25L-400wt'" font-size="14">Virtual space - Online database</text>
<text transform="matrix(1 0 0 1 354.2445 562.7262)" fill="#FFFFFF" font-family="'TitilliumText25L-400wt'" font-size="14">Phsical space- House/Space</text>
<text transform="matrix(1 0 0 1 354.2445 591.525)" fill="#FFFFFF" font-family="'TitilliumText25L-400wt'" font-size="14">Core team/employees</text>
<text transform="matrix(1 0 0 1 633.2445 263.9249)" fill="#FFFFFF" font-family="'TitilliumText25L-400wt'" font-size="14">We make Finnish fashion visible</text>
<text transform="matrix(1 0 0 1 633.2445 292.7247)" fill="#FFFFFF" font-family="'TitilliumText25L-400wt'" font-size="14">We create links between stakeholders</text>
<text transform="matrix(1 0 0 1 633.2445 321.5255)" fill="#FFFFFF" font-family="'TitilliumText25L-400wt'" font-size="14">We increase Finnish export to</text>
<text transform="matrix(1 0 0 1 633.2445 338.3253)" fill="#FFFFFF" font-family="'TitilliumText25L-400wt'" font-size="14">superstar level</text>
<text transform="matrix(1 0 0 1 633.2445 364.7247)" fill="#FFFFFF" font-family="'TitilliumText25L-400wt'" font-size="14">Better business</text>
<text transform="matrix(1 0 0 1 633.2445 393.5255)" fill="#FFFFFF" font-family="'TitilliumText25L-400wt'" font-size="14">Networking/Inspiration</text>
<text transform="matrix(1 0 0 1 633.2445 422.3253)" fill="#FFFFFF" font-family="'TitilliumText25L-400wt'" font-size="14">Grants</text>
<text transform="matrix(1 0 0 1 921.245 247.9249)" fill="#FFFFFF" font-family="'TitilliumText25L-400wt'" font-size="14">Membership</text>
<text transform="matrix(1 0 0 1 921.245 276.7247)" fill="#FFFFFF" font-family="'TitilliumText25L-400wt'" font-size="14">Agent</text>
<text transform="matrix(1 0 0 1 923.245 569.9254)" fill="#FFFFFF" font-family="'TitilliumText25L-400wt'" font-size="14">Website</text>
<text transform="matrix(1 0 0 1 923.245 598.7262)" fill="#FFFFFF" font-family="'TitilliumText25L-400wt'" font-size="14">Open source</text>
<text transform="matrix(1 0 0 1 923.245 627.525)" fill="#FFFFFF" font-family="'TitilliumText25L-400wt'" font-size="14">Fashion week</text>
<text transform="matrix(1 0 0 1 923.245 656.3239)" fill="#FFFFFF" font-family="'TitilliumText25L-400wt'" font-size="14">Newsletters</text>
<text transform="matrix(1 0 0 1 1206.245 230.9249)" fill="#FFFFFF" font-family="'TitilliumText25L-400wt'" font-size="14">Designers</text>
<text transform="matrix(1 0 0 1 1206.245 259.7247)" fill="#FFFFFF" font-family="'TitilliumText25L-400wt'" font-size="14">Buyers</text>
<text transform="matrix(1 0 0 1 1206.245 288.5255)" fill="#FFFFFF" font-family="'TitilliumText25L-400wt'" font-size="14">Shops/Retailers</text>
<text transform="matrix(1 0 0 1 1206.245 317.3253)" fill="#FFFFFF" font-family="'TitilliumText25L-400wt'" font-size="14">Organizations</text>
<text transform="matrix(1 0 0 1 1206.245 346.1251)" fill="#FFFFFF" font-family="'TitilliumText25L-400wt'" font-size="14">PR-Agencies</text>
<text transform="matrix(1 0 0 1 69.2445 827.9254)" fill="#FFFFFF" font-family="'TitilliumText25L-400wt'" font-size="14">Rent</text>
<text transform="matrix(1 0 0 1 69.2445 856.7262)" fill="#FFFFFF" font-family="'TitilliumText25L-400wt'" font-size="14">Salary-bought services</text>
<text transform="matrix(1 0 0 1 69.2445 885.525)" fill="#FFFFFF" font-family="'TitilliumText25L-400wt'" font-size="14">Webhoasting</text>
<text transform="matrix(1 0 0 1 69.2445 914.3239)" fill="#FFFFFF" font-family="'TitilliumText25L-400wt'" font-size="14">Event organisation</text>
<text transform="matrix(1 0 0 1 777.245 829.9254)" fill="#FFFFFF" font-family="'TitilliumText25L-400wt'" font-size="14">Membership fees</text>
<text transform="matrix(1 0 0 1 777.245 858.7262)" fill="#FFFFFF" font-family="'TitilliumText25L-400wt'" font-size="14">Event organisation</text>
<text transform="matrix(1 0 0 1 777.245 887.525)" fill="#FFFFFF" font-family="'TitilliumText25L-400wt'" font-size="14">Government funding</text>
<text transform="matrix(1 0 0 1 777.245 916.3239)" fill="#FFFFFF" font-family="'TitilliumText25L-400wt'" font-size="14">Foundation (grants)</text>
<text transform="matrix(1 0 0 1 217.0453 972.861)" fill="#503B72" font-family="'TitilliumText25L-800wt'" font-size="14">  FIF</text>
<text transform="matrix(1 0 0 1 217.0453 1001.6617)" fill="#FFFFFF" font-family="'TitilliumText25L-400wt'" font-size="14">services</text>
</svg>
